<svg width="575" height="34" viewBox="0 0 575 34" fill="none" xmlns="http://www.w3.org/2000/svg">
<g filter="url(#filter0_d)">
<path d="M5.573 2.3H15.431C17.787 2.3 19.864 2.75467 21.662 3.664C23.4807 4.55267 24.886 5.81333 25.878 7.446C26.8907 9.07867 27.397 10.98 27.397 13.15C27.397 15.32 26.8907 17.2213 25.878 18.854C24.886 20.4867 23.4807 21.7577 21.662 22.667C19.864 23.5557 17.787 24 15.431 24H5.573V2.3ZM15.183 19.877C17.353 19.877 19.0787 19.2777 20.36 18.079C21.662 16.8597 22.313 15.2167 22.313 13.15C22.313 11.0833 21.662 9.45067 20.36 8.252C19.0787 7.03267 17.353 6.423 15.183 6.423H10.595V19.877H15.183ZM51.0863 2.3V24H46.0643V15.103H36.2063V24H31.1843V2.3H36.2063V10.856H46.0643V2.3H51.0863ZM70.5115 19.35H60.4365L58.5145 24H53.3685L63.0405 2.3H68.0005L77.7035 24H72.4335L70.5115 19.35ZM68.9305 15.537L65.4895 7.229L62.0485 15.537H68.9305ZM87.8598 15.475L84.9458 18.513V24H79.9548V2.3H84.9458V12.437L94.5558 2.3H100.136L91.1458 11.972L100.663 24H94.8038L87.8598 15.475ZM116.224 19.35H106.149L104.227 24H99.0814L108.753 2.3H113.713L123.416 24H118.146L116.224 19.35ZM114.643 15.537L111.202 7.229L107.761 15.537H114.643ZM154.194 24L154.163 10.98L147.777 21.706H145.514L139.159 11.259V24H134.447V2.3H138.601L146.723 15.785L154.721 2.3H158.844L158.906 24H154.194ZM178.345 19.35H168.27L166.348 24H161.202L170.874 2.3H175.834L185.537 24H180.267L178.345 19.35ZM176.764 15.537L173.323 7.229L169.882 15.537H176.764ZM194.919 24.372C193.203 24.372 191.54 24.1447 189.928 23.69C188.336 23.2147 187.055 22.605 186.084 21.861L187.789 18.079C188.719 18.761 189.824 19.3087 191.106 19.722C192.387 20.1353 193.668 20.342 194.95 20.342C196.376 20.342 197.43 20.1353 198.112 19.722C198.794 19.288 199.135 18.7197 199.135 18.017C199.135 17.5003 198.928 17.0767 198.515 16.746C198.122 16.3947 197.605 16.1157 196.965 15.909C196.345 15.7023 195.497 15.475 194.423 15.227C192.769 14.8343 191.416 14.4417 190.362 14.049C189.308 13.6563 188.398 13.026 187.634 12.158C186.89 11.29 186.518 10.1327 186.518 8.686C186.518 7.42533 186.859 6.28867 187.541 5.276C188.223 4.24267 189.246 3.42633 190.61 2.827C191.994 2.22767 193.679 1.928 195.663 1.928C197.047 1.928 198.401 2.09333 199.724 2.424C201.046 2.75467 202.204 3.23 203.196 3.85L201.646 7.663C199.641 6.52633 197.636 5.958 195.632 5.958C194.226 5.958 193.183 6.18533 192.501 6.64C191.839 7.09467 191.509 7.694 191.509 8.438C191.509 9.182 191.891 9.74 192.656 10.112C193.441 10.4633 194.629 10.8147 196.221 11.166C197.874 11.5587 199.228 11.9513 200.282 12.344C201.336 12.7367 202.235 13.3567 202.979 14.204C203.743 15.0513 204.126 16.1983 204.126 17.645C204.126 18.885 203.774 20.0217 203.072 21.055C202.39 22.0677 201.356 22.8737 199.972 23.473C198.587 24.0723 196.903 24.372 194.919 24.372ZM214.687 24.372C212.972 24.372 211.308 24.1447 209.696 23.69C208.105 23.2147 206.824 22.605 205.852 21.861L207.557 18.079C208.487 18.761 209.593 19.3087 210.874 19.722C212.156 20.1353 213.437 20.342 214.718 20.342C216.144 20.342 217.198 20.1353 217.88 19.722C218.562 19.288 218.903 18.7197 218.903 18.017C218.903 17.5003 218.697 17.0767 218.283 16.746C217.891 16.3947 217.374 16.1157 216.733 15.909C216.113 15.7023 215.266 15.475 214.191 15.227C212.538 14.8343 211.184 14.4417 210.13 14.049C209.076 13.6563 208.167 13.026 207.402 12.158C206.658 11.29 206.286 10.1327 206.286 8.686C206.286 7.42533 206.627 6.28867 207.309 5.276C207.991 4.24267 209.014 3.42633 210.378 2.827C211.763 2.22767 213.447 1.928 215.431 1.928C216.816 1.928 218.17 2.09333 219.492 2.424C220.815 2.75467 221.972 3.23 222.964 3.85L221.414 7.663C219.41 6.52633 217.405 5.958 215.4 5.958C213.995 5.958 212.951 6.18533 212.269 6.64C211.608 7.09467 211.277 7.694 211.277 8.438C211.277 9.182 211.66 9.74 212.424 10.112C213.21 10.4633 214.398 10.8147 215.989 11.166C217.643 11.5587 218.996 11.9513 220.05 12.344C221.104 12.7367 222.003 13.3567 222.747 14.204C223.512 15.0513 223.894 16.1983 223.894 17.645C223.894 18.885 223.543 20.0217 222.84 21.055C222.158 22.0677 221.125 22.8737 219.74 23.473C218.356 24.0723 216.671 24.372 214.687 24.372ZM240.6 6.392H233.656V2.3H252.566V6.392H245.622V24H240.6V6.392ZM269.094 24L264.909 17.955H264.661H260.29V24H255.268V2.3H264.661C266.583 2.3 268.247 2.62033 269.652 3.261C271.078 3.90167 272.174 4.811 272.938 5.989C273.703 7.167 274.085 8.562 274.085 10.174C274.085 11.786 273.693 13.181 272.907 14.359C272.143 15.5163 271.047 16.405 269.621 17.025L274.488 24H269.094ZM269.001 10.174C269.001 8.95467 268.609 8.02467 267.823 7.384C267.038 6.72267 265.891 6.392 264.382 6.392H260.29V13.956H264.382C265.891 13.956 267.038 13.6253 267.823 12.964C268.609 12.3027 269.001 11.3727 269.001 10.174ZM292.355 19.35H282.28L280.358 24H275.212L284.884 2.3H289.844L299.547 24H294.277L292.355 19.35ZM290.774 15.537L287.333 7.229L283.892 15.537H290.774ZM321.701 2.3V24H317.578L306.759 10.825V24H301.799V2.3H305.953L316.741 15.475V2.3H321.701ZM333.965 24.372C332.249 24.372 330.586 24.1447 328.974 23.69C327.382 23.2147 326.101 22.605 325.13 21.861L326.835 18.079C327.765 18.761 328.87 19.3087 330.152 19.722C331.433 20.1353 332.714 20.342 333.996 20.342C335.422 20.342 336.476 20.1353 337.158 19.722C337.84 19.288 338.181 18.7197 338.181 18.017C338.181 17.5003 337.974 17.0767 337.561 16.746C337.168 16.3947 336.651 16.1157 336.011 15.909C335.391 15.7023 334.543 15.475 333.469 15.227C331.815 14.8343 330.462 14.4417 329.408 14.049C328.354 13.6563 327.444 13.026 326.68 12.158C325.936 11.29 325.564 10.1327 325.564 8.686C325.564 7.42533 325.905 6.28867 326.587 5.276C327.269 4.24267 328.292 3.42633 329.656 2.827C331.04 2.22767 332.725 1.928 334.709 1.928C336.093 1.928 337.447 2.09333 338.77 2.424C340.092 2.75467 341.25 3.23 342.242 3.85L340.692 7.663C338.687 6.52633 336.682 5.958 334.678 5.958C333.272 5.958 332.229 6.18533 331.547 6.64C330.885 7.09467 330.555 7.694 330.555 8.438C330.555 9.182 330.937 9.74 331.702 10.112C332.487 10.4633 333.675 10.8147 335.267 11.166C336.92 11.5587 338.274 11.9513 339.328 12.344C340.382 12.7367 341.281 13.3567 342.025 14.204C342.789 15.0513 343.172 16.1983 343.172 17.645C343.172 18.885 342.82 20.0217 342.118 21.055C341.436 22.0677 340.402 22.8737 339.018 23.473C337.633 24.0723 335.949 24.372 333.965 24.372ZM355.996 2.3C357.918 2.3 359.582 2.62033 360.987 3.261C362.413 3.90167 363.509 4.811 364.273 5.989C365.038 7.167 365.42 8.562 365.42 10.174C365.42 11.7653 365.038 13.1603 364.273 14.359C363.509 15.537 362.413 16.4463 360.987 17.087C359.582 17.707 357.918 18.017 355.996 18.017H351.625V24H346.603V2.3H355.996ZM355.717 13.925C357.226 13.925 358.373 13.6047 359.158 12.964C359.944 12.3027 360.336 11.3727 360.336 10.174C360.336 8.95467 359.944 8.02467 359.158 7.384C358.373 6.72267 357.226 6.392 355.717 6.392H351.625V13.925H355.717ZM379.817 24.372C377.565 24.372 375.529 23.8863 373.71 22.915C371.912 21.9437 370.497 20.6107 369.463 18.916C368.451 17.2007 367.944 15.2787 367.944 13.15C367.944 11.0213 368.451 9.10967 369.463 7.415C370.497 5.69967 371.912 4.35633 373.71 3.385C375.529 2.41367 377.565 1.928 379.817 1.928C382.07 1.928 384.095 2.41367 385.893 3.385C387.691 4.35633 389.107 5.69967 390.14 7.415C391.174 9.10967 391.69 11.0213 391.69 13.15C391.69 15.2787 391.174 17.2007 390.14 18.916C389.107 20.6107 387.691 21.9437 385.893 22.915C384.095 23.8863 382.07 24.372 379.817 24.372ZM379.817 20.094C381.099 20.094 382.256 19.8047 383.289 19.226C384.323 18.6267 385.129 17.8 385.707 16.746C386.307 15.692 386.606 14.4933 386.606 13.15C386.606 11.8067 386.307 10.608 385.707 9.554C385.129 8.5 384.323 7.68367 383.289 7.105C382.256 6.50567 381.099 6.206 379.817 6.206C378.536 6.206 377.379 6.50567 376.345 7.105C375.312 7.68367 374.496 8.5 373.896 9.554C373.318 10.608 373.028 11.8067 373.028 13.15C373.028 14.4933 373.318 15.692 373.896 16.746C374.496 17.8 375.312 18.6267 376.345 19.226C377.379 19.8047 378.536 20.094 379.817 20.094ZM409.291 24L405.106 17.955H404.858H400.487V24H395.465V2.3H404.858C406.78 2.3 408.443 2.62033 409.849 3.261C411.275 3.90167 412.37 4.811 413.135 5.989C413.899 7.167 414.282 8.562 414.282 10.174C414.282 11.786 413.889 13.181 413.104 14.359C412.339 15.5163 411.244 16.405 409.818 17.025L414.685 24H409.291ZM409.198 10.174C409.198 8.95467 408.805 8.02467 408.02 7.384C407.234 6.72267 406.087 6.392 404.579 6.392H400.487V13.956H404.579C406.087 13.956 407.234 13.6253 408.02 12.964C408.805 12.3027 409.198 11.3727 409.198 10.174ZM422.453 6.392H415.509V2.3H434.419V6.392H427.475V24H422.453V6.392ZM453.03 24.372C451.315 24.372 449.651 24.1447 448.039 23.69C446.448 23.2147 445.166 22.605 444.195 21.861L445.9 18.079C446.83 18.761 447.936 19.3087 449.217 19.722C450.498 20.1353 451.78 20.342 453.061 20.342C454.487 20.342 455.541 20.1353 456.223 19.722C456.905 19.288 457.246 18.7197 457.246 18.017C457.246 17.5003 457.039 17.0767 456.626 16.746C456.233 16.3947 455.717 16.1157 455.076 15.909C454.456 15.7023 453.609 15.475 452.534 15.227C450.881 14.8343 449.527 14.4417 448.473 14.049C447.419 13.6563 446.51 13.026 445.745 12.158C445.001 11.29 444.629 10.1327 444.629 8.686C444.629 7.42533 444.97 6.28867 445.652 5.276C446.334 4.24267 447.357 3.42633 448.721 2.827C450.106 2.22767 451.79 1.928 453.774 1.928C455.159 1.928 456.512 2.09333 457.835 2.424C459.158 2.75467 460.315 3.23 461.307 3.85L459.757 7.663C457.752 6.52633 455.748 5.958 453.743 5.958C452.338 5.958 451.294 6.18533 450.612 6.64C449.951 7.09467 449.62 7.694 449.62 8.438C449.62 9.182 450.002 9.74 450.767 10.112C451.552 10.4633 452.741 10.8147 454.332 11.166C455.985 11.5587 457.339 11.9513 458.393 12.344C459.447 12.7367 460.346 13.3567 461.09 14.204C461.855 15.0513 462.237 16.1983 462.237 17.645C462.237 18.885 461.886 20.0217 461.183 21.055C460.501 22.0677 459.468 22.8737 458.083 23.473C456.698 24.0723 455.014 24.372 453.03 24.372ZM475.631 16.312V24H470.609V16.25L462.208 2.3H467.54L473.337 11.941L479.134 2.3H484.063L475.631 16.312ZM492.84 24.372C491.124 24.372 489.461 24.1447 487.849 23.69C486.257 23.2147 484.976 22.605 484.005 21.861L485.71 18.079C486.64 18.761 487.745 19.3087 489.027 19.722C490.308 20.1353 491.589 20.342 492.871 20.342C494.297 20.342 495.351 20.1353 496.033 19.722C496.715 19.288 497.056 18.7197 497.056 18.017C497.056 17.5003 496.849 17.0767 496.436 16.746C496.043 16.3947 495.526 16.1157 494.886 15.909C494.266 15.7023 493.418 15.475 492.344 15.227C490.69 14.8343 489.337 14.4417 488.283 14.049C487.229 13.6563 486.319 13.026 485.555 12.158C484.811 11.29 484.439 10.1327 484.439 8.686C484.439 7.42533 484.78 6.28867 485.462 5.276C486.144 4.24267 487.167 3.42633 488.531 2.827C489.915 2.22767 491.6 1.928 493.584 1.928C494.968 1.928 496.322 2.09333 497.645 2.424C498.967 2.75467 500.125 3.23 501.117 3.85L499.567 7.663C497.562 6.52633 495.557 5.958 493.553 5.958C492.147 5.958 491.104 6.18533 490.422 6.64C489.76 7.09467 489.43 7.694 489.43 8.438C489.43 9.182 489.812 9.74 490.577 10.112C491.362 10.4633 492.55 10.8147 494.142 11.166C495.795 11.5587 497.149 11.9513 498.203 12.344C499.257 12.7367 500.156 13.3567 500.9 14.204C501.664 15.0513 502.047 16.1983 502.047 17.645C502.047 18.885 501.695 20.0217 500.993 21.055C500.311 22.0677 499.277 22.8737 497.893 23.473C496.508 24.0723 494.824 24.372 492.84 24.372ZM509.671 6.392H502.727V2.3H521.637V6.392H514.693V24H509.671V6.392ZM541.141 19.97V24H524.339V2.3H540.738V6.33H529.33V11.042H539.405V14.948H529.33V19.97H541.141ZM564.883 24L564.852 10.98L558.466 21.706H556.203L549.848 11.259V24H545.136V2.3H549.29L557.412 15.785L565.41 2.3H569.533L569.595 24H564.883Z" fill="#F2FCFE"/>
<path d="M5.573 2.3V1.3C5.02072 1.3 4.573 1.74771 4.573 2.3H5.573ZM21.662 3.664L21.2106 4.55645L21.223 4.56247L21.662 3.664ZM25.878 7.446L25.0233 7.96528L25.0282 7.97309L25.878 7.446ZM25.878 18.854L25.0282 18.3269L25.0234 18.3347L25.878 18.854ZM21.662 22.667L22.1051 23.5635L22.1092 23.5614L21.662 22.667ZM5.573 24H4.573C4.573 24.5523 5.02072 25 5.573 25V24ZM20.36 18.079L21.0432 18.8093L21.0436 18.8089L20.36 18.079ZM20.36 8.252L19.6706 8.97642C19.6746 8.98021 19.6786 8.98397 19.6827 8.9877L20.36 8.252ZM10.595 6.423V5.423C10.0427 5.423 9.595 5.87071 9.595 6.423H10.595ZM10.595 19.877H9.595C9.595 20.4293 10.0427 20.877 10.595 20.877V19.877ZM5.573 3.3H15.431V1.3H5.573V3.3ZM15.431 3.3C17.6567 3.3 19.5745 3.72886 21.2107 4.55637L22.1133 2.77163C20.1535 1.78047 17.9173 1.3 15.431 1.3V3.3ZM21.223 4.56247C22.8804 5.37236 24.1368 6.50608 25.0234 7.96526L26.7326 6.92674C25.6352 5.12058 24.0809 3.73298 22.101 2.76553L21.223 4.56247ZM25.0282 7.97309C25.9304 9.42769 26.397 11.1415 26.397 13.15H28.397C28.397 10.8185 27.8509 8.72964 26.7278 6.9189L25.0282 7.97309ZM26.397 13.15C26.397 15.1585 25.9304 16.8723 25.0282 18.3269L26.7278 19.3811C27.8509 17.5704 28.397 15.4815 28.397 13.15H26.397ZM25.0234 18.3347C24.1355 19.796 22.8764 20.9418 21.2148 21.7726L22.1092 23.5614C24.085 22.5735 25.6365 21.1773 26.7326 19.3733L25.0234 18.3347ZM21.2189 21.7705C19.5808 22.5802 17.66 23 15.431 23V25C17.914 25 20.1472 24.5312 22.1051 23.5635L21.2189 21.7705ZM15.431 23H5.573V25H15.431V23ZM6.573 24V2.3H4.573V24H6.573ZM15.183 20.877C17.5437 20.877 19.5352 20.22 21.0432 18.8093L19.6768 17.3487C18.6222 18.3354 17.1623 18.877 15.183 18.877V20.877ZM21.0436 18.8089C22.58 17.37 23.313 15.4453 23.313 13.15H21.313C21.313 14.988 20.744 16.3493 19.6764 17.3491L21.0436 18.8089ZM23.313 13.15C23.313 10.8551 22.5799 8.93648 21.0373 7.5163L19.6827 8.9877C20.7441 9.96486 21.313 11.3116 21.313 13.15H23.313ZM21.0494 7.52758C19.5419 6.09311 17.5482 5.423 15.183 5.423V7.423C17.1578 7.423 18.6154 7.97222 19.6706 8.97642L21.0494 7.52758ZM15.183 5.423H10.595V7.423H15.183V5.423ZM9.595 6.423V19.877H11.595V6.423H9.595ZM10.595 20.877H15.183V18.877H10.595V20.877ZM51.0863 2.3H52.0863C52.0863 1.74771 51.6386 1.3 51.0863 1.3V2.3ZM51.0863 24V25C51.6386 25 52.0863 24.5523 52.0863 24H51.0863ZM46.0643 24H45.0643C45.0643 24.5523 45.512 25 46.0643 25V24ZM46.0643 15.103H47.0643C47.0643 14.5507 46.6166 14.103 46.0643 14.103V15.103ZM36.2063 15.103V14.103C35.654 14.103 35.2063 14.5507 35.2063 15.103H36.2063ZM36.2063 24V25C36.7586 25 37.2063 24.5523 37.2063 24H36.2063ZM31.1843 24H30.1843C30.1843 24.5523 30.632 25 31.1843 25V24ZM31.1843 2.3V1.3C30.632 1.3 30.1843 1.74771 30.1843 2.3H31.1843ZM36.2063 2.3H37.2063C37.2063 1.74771 36.7586 1.3 36.2063 1.3V2.3ZM36.2063 10.856H35.2063C35.2063 11.4083 35.654 11.856 36.2063 11.856V10.856ZM46.0643 10.856V11.856C46.6166 11.856 47.0643 11.4083 47.0643 10.856H46.0643ZM46.0643 2.3V1.3C45.512 1.3 45.0643 1.74771 45.0643 2.3H46.0643ZM50.0863 2.3V24H52.0863V2.3H50.0863ZM51.0863 23H46.0643V25H51.0863V23ZM47.0643 24V15.103H45.0643V24H47.0643ZM46.0643 14.103H36.2063V16.103H46.0643V14.103ZM35.2063 15.103V24H37.2063V15.103H35.2063ZM36.2063 23H31.1843V25H36.2063V23ZM32.1843 24V2.3H30.1843V24H32.1843ZM31.1843 3.3H36.2063V1.3H31.1843V3.3ZM35.2063 2.3V10.856H37.2063V2.3H35.2063ZM36.2063 11.856H46.0643V9.856H36.2063V11.856ZM47.0643 10.856V2.3H45.0643V10.856H47.0643ZM46.0643 3.3H51.0863V1.3H46.0643V3.3ZM70.5115 19.35L71.4356 18.968C71.281 18.594 70.9162 18.35 70.5115 18.35V19.35ZM60.4365 19.35V18.35C60.0317 18.35 59.6669 18.594 59.5123 18.968L60.4365 19.35ZM58.5145 24V25C58.9192 25 59.284 24.756 59.4386 24.382L58.5145 24ZM53.3685 24L52.4551 23.5929C52.3172 23.9023 52.3453 24.2604 52.5297 24.5445C52.7141 24.8286 53.0298 25 53.3685 25V24ZM63.0405 2.3V1.3C62.6457 1.3 62.2878 1.53229 62.1271 1.89289L63.0405 2.3ZM68.0005 2.3L68.9134 1.8918C68.7524 1.53178 68.3948 1.3 68.0005 1.3V2.3ZM77.7035 24V25C78.0424 25 78.3582 24.8283 78.5426 24.544C78.7269 24.2596 78.7547 23.9012 78.6164 23.5918L77.7035 24ZM72.4335 24L71.5093 24.382C71.6639 24.756 72.0287 25 72.4335 25V24ZM68.9305 15.537V16.537C69.2644 16.537 69.5764 16.3703 69.7619 16.0926C69.9475 15.8149 69.9822 15.4629 69.8544 15.1543L68.9305 15.537ZM65.4895 7.229L66.4134 6.84634C66.2586 6.47265 65.8939 6.229 65.4895 6.229C65.085 6.229 64.7203 6.47265 64.5656 6.84634L65.4895 7.229ZM62.0485 15.537L61.1246 15.1543C60.9968 15.4629 61.0314 15.8149 61.217 16.0926C61.4026 16.3703 61.7145 16.537 62.0485 16.537V15.537ZM70.5115 18.35H60.4365V20.35H70.5115V18.35ZM59.5123 18.968L57.5903 23.618L59.4386 24.382L61.3606 19.732L59.5123 18.968ZM58.5145 23H53.3685V25H58.5145V23ZM54.2818 24.4071L63.9538 2.70711L62.1271 1.89289L52.4551 23.5929L54.2818 24.4071ZM63.0405 3.3H68.0005V1.3H63.0405V3.3ZM67.0876 2.70819L76.7906 24.4082L78.6164 23.5918L68.9134 1.8918L67.0876 2.70819ZM77.7035 23H72.4335V25H77.7035V23ZM73.3576 23.618L71.4356 18.968L69.5873 19.732L71.5093 24.382L73.3576 23.618ZM69.8544 15.1543L66.4134 6.84634L64.5656 7.61166L68.0066 15.9197L69.8544 15.1543ZM64.5656 6.84634L61.1246 15.1543L62.9724 15.9197L66.4134 7.61166L64.5656 6.84634ZM62.0485 16.537H68.9305V14.537H62.0485V16.537ZM87.8598 15.475L88.6352 14.8435C88.4542 14.6213 88.1866 14.4874 87.9003 14.4758C87.614 14.4642 87.3365 14.576 87.1382 14.7828L87.8598 15.475ZM84.9458 18.513L84.2242 17.8208C84.0456 18.007 83.9458 18.255 83.9458 18.513H84.9458ZM84.9458 24V25C85.4981 25 85.9458 24.5523 85.9458 24H84.9458ZM79.9548 24H78.9548C78.9548 24.5523 79.4026 25 79.9548 25V24ZM79.9548 2.3V1.3C79.4026 1.3 78.9548 1.74771 78.9548 2.3H79.9548ZM84.9458 2.3H85.9458C85.9458 1.74771 85.4981 1.3 84.9458 1.3V2.3ZM84.9458 12.437H83.9458C83.9458 12.8463 84.1953 13.2143 84.5755 13.3659C84.9557 13.5175 85.3899 13.422 85.6716 13.125L84.9458 12.437ZM94.5558 2.3V1.3C94.2814 1.3 94.019 1.41282 93.8301 1.61201L94.5558 2.3ZM100.136 2.3L100.868 2.98081C101.139 2.68942 101.212 2.2652 101.053 1.90051C100.894 1.53581 100.534 1.3 100.136 1.3V2.3ZM91.1458 11.972L90.4134 11.2912C90.0773 11.6527 90.0553 12.2054 90.3616 12.5925L91.1458 11.972ZM100.663 24V25C101.046 25 101.396 24.7808 101.563 24.4356C101.73 24.0905 101.685 23.6802 101.447 23.3795L100.663 24ZM94.8038 24L94.0285 24.6315C94.2184 24.8647 94.5031 25 94.8038 25V24ZM87.1382 14.7828L84.2242 17.8208L85.6675 19.2052L88.5815 16.1672L87.1382 14.7828ZM83.9458 18.513V24H85.9458V18.513H83.9458ZM84.9458 23H79.9548V25H84.9458V23ZM80.9548 24V2.3H78.9548V24H80.9548ZM79.9548 3.3H84.9458V1.3H79.9548V3.3ZM83.9458 2.3V12.437H85.9458V2.3H83.9458ZM85.6716 13.125L95.2816 2.98799L93.8301 1.61201L84.2201 11.749L85.6716 13.125ZM94.5558 3.3H100.136V1.3H94.5558V3.3ZM99.4034 1.61919L90.4134 11.2912L91.8783 12.6528L100.868 2.98081L99.4034 1.61919ZM90.3616 12.5925L99.8786 24.6205L101.447 23.3795L91.93 11.3515L90.3616 12.5925ZM100.663 23H94.8038V25H100.663V23ZM95.5792 23.3685L88.6352 14.8435L87.0845 16.1065L94.0285 24.6315L95.5792 23.3685ZM116.224 19.35L117.149 18.968C116.994 18.594 116.629 18.35 116.224 18.35V19.35ZM106.149 19.35V18.35C105.745 18.35 105.38 18.594 105.225 18.968L106.149 19.35ZM104.227 24V25C104.632 25 104.997 24.756 105.152 24.382L104.227 24ZM99.0814 24L98.168 23.5929C98.0301 23.9023 98.0582 24.2604 98.2426 24.5445C98.427 24.8286 98.7427 25 99.0814 25V24ZM108.753 2.3V1.3C108.359 1.3 108.001 1.53229 107.84 1.89289L108.753 2.3ZM113.713 2.3L114.626 1.8918C114.465 1.53178 114.108 1.3 113.713 1.3V2.3ZM123.416 24V25C123.755 25 124.071 24.8283 124.255 24.544C124.44 24.2596 124.468 23.9012 124.329 23.5918L123.416 24ZM118.146 24L117.222 24.382C117.377 24.756 117.742 25 118.146 25V24ZM114.643 15.537V16.537C114.977 16.537 115.289 16.3703 115.475 16.0926C115.66 15.8149 115.695 15.4629 115.567 15.1543L114.643 15.537ZM111.202 7.229L112.126 6.84634C111.971 6.47265 111.607 6.229 111.202 6.229C110.798 6.229 110.433 6.47265 110.278 6.84634L111.202 7.229ZM107.761 15.537L106.837 15.1543C106.71 15.4629 106.744 15.8149 106.93 16.0926C107.115 16.3703 107.427 16.537 107.761 16.537V15.537ZM116.224 18.35H106.149V20.35H116.224V18.35ZM105.225 18.968L103.303 23.618L105.152 24.382L107.074 19.732L105.225 18.968ZM104.227 23H99.0814V25H104.227V23ZM99.9947 24.4071L109.667 2.70711L107.84 1.89289L98.168 23.5929L99.9947 24.4071ZM108.753 3.3H113.713V1.3H108.753V3.3ZM112.8 2.70819L122.503 24.4082L124.329 23.5918L114.626 1.8918L112.8 2.70819ZM123.416 23H118.146V25H123.416V23ZM119.071 23.618L117.149 18.968L115.3 19.732L117.222 24.382L119.071 23.618ZM115.567 15.1543L112.126 6.84634L110.278 7.61166L113.719 15.9197L115.567 15.1543ZM110.278 6.84634L106.837 15.1543L108.685 15.9197L112.126 7.61166L110.278 6.84634ZM107.761 16.537H114.643V14.537H107.761V16.537ZM154.194 24L153.194 24.0024C153.195 24.5537 153.643 25 154.194 25V24ZM154.163 10.98L155.163 10.9776C155.162 10.5279 154.861 10.1343 154.427 10.0155C153.993 9.89674 153.534 10.0821 153.304 10.4684L154.163 10.98ZM147.777 21.706V22.706C148.13 22.706 148.456 22.5204 148.636 22.2176L147.777 21.706ZM145.514 21.706L144.66 22.2257C144.841 22.524 145.165 22.706 145.514 22.706V21.706ZM139.159 11.259L140.013 10.7393C139.78 10.3562 139.321 10.1751 138.889 10.2961C138.457 10.4171 138.159 10.8106 138.159 11.259H139.159ZM139.159 24V25C139.711 25 140.159 24.5523 140.159 24H139.159ZM134.447 24H133.447C133.447 24.5523 133.895 25 134.447 25V24ZM134.447 2.3V1.3C133.895 1.3 133.447 1.74771 133.447 2.3H134.447ZM138.601 2.3L139.458 1.78406C139.277 1.48367 138.952 1.3 138.601 1.3V2.3ZM146.723 15.785L145.866 16.3009C146.048 16.6024 146.375 16.7862 146.726 16.785C147.078 16.7838 147.404 16.5978 147.583 16.2951L146.723 15.785ZM154.721 2.3V1.3C154.368 1.3 154.041 1.48619 153.861 1.78987L154.721 2.3ZM158.844 2.3L159.844 2.29714C159.842 1.74597 159.395 1.3 158.844 1.3V2.3ZM158.906 24V25C159.172 25 159.427 24.8943 159.614 24.7061C159.802 24.5179 159.907 24.2629 159.906 23.9971L158.906 24ZM155.194 23.9976L155.163 10.9776L153.163 10.9824L153.194 24.0024L155.194 23.9976ZM153.304 10.4684L146.918 21.1944L148.636 22.2176L155.022 11.4916L153.304 10.4684ZM147.777 20.706H145.514V22.706H147.777V20.706ZM146.368 21.1863L140.013 10.7393L138.305 11.7787L144.66 22.2257L146.368 21.1863ZM138.159 11.259V24H140.159V11.259H138.159ZM139.159 23H134.447V25H139.159V23ZM135.447 24V2.3H133.447V24H135.447ZM134.447 3.3H138.601V1.3H134.447V3.3ZM137.744 2.81594L145.866 16.3009L147.58 15.2691L139.458 1.78406L137.744 2.81594ZM147.583 16.2951L155.581 2.81013L153.861 1.78987L145.863 15.2749L147.583 16.2951ZM154.721 3.3H158.844V1.3H154.721V3.3ZM157.844 2.30286L157.906 24.0029L159.906 23.9971L159.844 2.29714L157.844 2.30286ZM158.906 23H154.194V25H158.906V23ZM178.345 19.35L179.27 18.968C179.115 18.594 178.75 18.35 178.345 18.35V19.35ZM168.27 19.35V18.35C167.866 18.35 167.501 18.594 167.346 18.968L168.27 19.35ZM166.348 24V25C166.753 25 167.118 24.756 167.273 24.382L166.348 24ZM161.202 24L160.289 23.5929C160.151 23.9023 160.179 24.2604 160.364 24.5445C160.548 24.8286 160.864 25 161.202 25V24ZM170.874 2.3V1.3C170.48 1.3 170.122 1.53229 169.961 1.89289L170.874 2.3ZM175.834 2.3L176.747 1.8918C176.586 1.53178 176.229 1.3 175.834 1.3V2.3ZM185.537 24V25C185.876 25 186.192 24.8283 186.377 24.544C186.561 24.2596 186.589 23.9012 186.45 23.5918L185.537 24ZM180.267 24L179.343 24.382C179.498 24.756 179.863 25 180.267 25V24ZM176.764 15.537V16.537C177.098 16.537 177.41 16.3703 177.596 16.0926C177.781 15.8149 177.816 15.4629 177.688 15.1543L176.764 15.537ZM173.323 7.229L174.247 6.84634C174.093 6.47265 173.728 6.229 173.323 6.229C172.919 6.229 172.554 6.47265 172.4 6.84634L173.323 7.229ZM169.882 15.537L168.959 15.1543C168.831 15.4629 168.865 15.8149 169.051 16.0926C169.237 16.3703 169.548 16.537 169.882 16.537V15.537ZM178.345 18.35H168.27V20.35H178.345V18.35ZM167.346 18.968L165.424 23.618L167.273 24.382L169.195 19.732L167.346 18.968ZM166.348 23H161.202V25H166.348V23ZM162.116 24.4071L171.788 2.70711L169.961 1.89289L160.289 23.5929L162.116 24.4071ZM170.874 3.3H175.834V1.3H170.874V3.3ZM174.922 2.70819L184.625 24.4082L186.45 23.5918L176.747 1.8918L174.922 2.70819ZM185.537 23H180.267V25H185.537V23ZM181.192 23.618L179.27 18.968L177.421 19.732L179.343 24.382L181.192 23.618ZM177.688 15.1543L174.247 6.84634L172.4 7.61166L175.841 15.9197L177.688 15.1543ZM172.4 6.84634L168.959 15.1543L170.806 15.9197L174.247 7.61166L172.4 6.84634ZM169.882 16.537H176.764V14.537H169.882V16.537ZM189.928 23.69L189.642 24.6482C189.647 24.6496 189.651 24.6511 189.656 24.6524L189.928 23.69ZM186.084 21.861L185.172 21.45C184.981 21.8734 185.107 22.3725 185.476 22.6549L186.084 21.861ZM187.789 18.079L188.38 17.2726C188.137 17.0942 187.826 17.0352 187.534 17.1119C187.243 17.1887 187.001 17.393 186.877 17.668L187.789 18.079ZM191.106 19.722L191.413 18.7703L191.413 18.7703L191.106 19.722ZM198.112 19.722L198.63 20.5772C198.636 20.5734 198.643 20.5696 198.649 20.5657L198.112 19.722ZM198.515 16.746L197.848 17.4912C197.862 17.5035 197.876 17.5154 197.89 17.5269L198.515 16.746ZM196.965 15.909L196.649 16.8577L196.658 16.8607L196.965 15.909ZM194.423 15.227L194.192 16.2L194.198 16.2014L194.423 15.227ZM190.362 14.049L190.711 13.1119L190.711 13.1119L190.362 14.049ZM187.634 12.158L186.874 12.8089L186.883 12.819L187.634 12.158ZM187.541 5.276L188.37 5.83462L188.375 5.82684L187.541 5.276ZM190.61 2.827L190.213 1.90926L190.208 1.91148L190.61 2.827ZM199.724 2.424L199.966 1.45386L199.966 1.45386L199.724 2.424ZM203.196 3.85L204.122 4.22658C204.305 3.7763 204.138 3.25961 203.726 3.002L203.196 3.85ZM201.646 7.663L201.153 8.53289C201.403 8.67483 201.702 8.70205 201.974 8.60759C202.246 8.51314 202.464 8.30616 202.572 8.03958L201.646 7.663ZM192.501 6.64L191.946 5.80795C191.942 5.81059 191.938 5.81326 191.934 5.81596L192.501 6.64ZM192.656 10.112L192.218 11.0112C192.228 11.0159 192.238 11.0204 192.247 11.0248L192.656 10.112ZM196.221 11.166L196.452 10.1931C196.447 10.1918 196.442 10.1907 196.436 10.1895L196.221 11.166ZM200.282 12.344L200.631 11.4069L200.631 11.4069L200.282 12.344ZM202.979 14.204L202.227 14.8639L202.236 14.874L202.979 14.204ZM203.072 21.055L202.245 20.4927L202.242 20.4964L203.072 21.055ZM199.972 23.473L199.575 22.5553L199.575 22.5553L199.972 23.473ZM194.919 23.372C193.293 23.372 191.721 23.1567 190.199 22.7276L189.656 24.6524C191.359 25.1326 193.114 25.372 194.919 25.372V23.372ZM190.214 22.7318C188.7 22.2796 187.539 21.7161 186.692 21.0671L185.476 22.6549C186.571 23.4939 187.973 24.1497 189.642 24.6482L190.214 22.7318ZM186.995 22.272L188.7 18.49L186.877 17.668L185.172 21.45L186.995 22.272ZM187.197 18.8854C188.227 19.6404 189.432 20.2329 190.799 20.6737L191.413 18.7703C190.217 18.3845 189.211 17.8816 188.38 17.2726L187.197 18.8854ZM190.799 20.6737C192.174 21.1174 193.559 21.342 194.95 21.342V19.342C193.778 19.342 192.6 19.1533 191.413 18.7703L190.799 20.6737ZM194.95 21.342C196.434 21.342 197.712 21.1338 198.63 20.5772L197.594 18.8668C197.148 19.1369 196.317 19.342 194.95 19.342V21.342ZM198.649 20.5657C199.568 19.9805 200.135 19.1179 200.135 18.017H198.135C198.135 18.3214 198.019 18.5955 197.575 18.8783L198.649 20.5657ZM200.135 18.017C200.135 17.188 199.783 16.4802 199.14 15.9651L197.89 17.5269C198.073 17.6732 198.135 17.8127 198.135 18.017H200.135ZM199.182 16.0008C198.66 15.5342 198.01 15.1954 197.272 14.9573L196.658 16.8607C197.201 17.0359 197.584 17.2552 197.848 17.4912L199.182 16.0008ZM197.281 14.9603C196.618 14.7392 195.735 14.5036 194.648 14.2526L194.198 16.2014C195.26 16.4464 196.072 16.6655 196.649 16.8577L197.281 14.9603ZM194.654 14.2541C193.023 13.8666 191.712 13.4849 190.711 13.1119L190.013 14.9861C191.119 15.3984 192.516 15.802 194.192 16.1999L194.654 14.2541ZM190.711 13.1119C189.816 12.7785 189.043 12.2449 188.384 11.497L186.883 12.819C187.754 13.8071 188.8 14.5342 190.013 14.9861L190.711 13.1119ZM188.393 11.5072C187.842 10.8645 187.518 9.95912 187.518 8.686H185.518C185.518 10.3062 185.937 11.7155 186.875 12.8088L188.393 11.5072ZM187.518 8.686C187.518 7.61748 187.803 6.67658 188.37 5.8346L186.711 4.7174C185.914 5.90076 185.518 7.23318 185.518 8.686H187.518ZM188.375 5.82684C188.932 4.98424 189.788 4.28034 191.012 3.74252L190.208 1.91148C188.704 2.57232 187.514 3.50109 186.706 4.72516L188.375 5.82684ZM191.007 3.74472C192.234 3.21386 193.774 2.928 195.663 2.928V0.928C193.583 0.928 191.755 1.24147 190.213 1.90928L191.007 3.74472ZM195.663 2.928C196.967 2.928 198.239 3.08361 199.481 3.39414L199.966 1.45386C198.563 1.10305 197.128 0.928 195.663 0.928V2.928ZM199.481 3.39414C200.719 3.70351 201.776 4.14183 202.666 4.698L203.726 3.002C202.632 2.31817 201.374 1.80582 199.966 1.45386L199.481 3.39414ZM202.269 3.47342L200.719 7.28642L202.572 8.03958L204.122 4.22658L202.269 3.47342ZM202.139 6.79311C200.007 5.58408 197.834 4.958 195.632 4.958V6.958C197.439 6.958 199.276 7.46859 201.153 8.53289L202.139 6.79311ZM195.632 4.958C194.154 4.958 192.872 5.19045 191.946 5.80795L193.056 7.47205C193.493 7.18022 194.299 6.958 195.632 6.958V4.958ZM191.934 5.81596C191.027 6.43986 190.509 7.33527 190.509 8.438H192.509C192.509 8.05272 192.652 7.74947 193.067 7.46404L191.934 5.81596ZM190.509 8.438C190.509 8.9907 190.654 9.51773 190.971 9.97973C191.282 10.4341 191.72 10.7686 192.218 11.0112L193.093 9.21276C192.827 9.08341 192.692 8.9529 192.621 8.84927C192.555 8.75327 192.509 8.6293 192.509 8.438H190.509ZM192.247 11.0248C193.127 11.4184 194.395 11.787 196.005 12.1425L196.436 10.1895C194.864 9.8423 193.755 9.50823 193.064 9.19918L192.247 11.0248ZM195.99 12.1389C197.621 12.5264 198.931 12.9081 199.933 13.2811L200.631 11.4069C199.524 10.9946 198.127 10.591 196.452 10.1931L195.99 12.1389ZM199.933 13.2811C200.831 13.6159 201.592 14.1404 202.227 14.8638L203.73 13.5442C202.877 12.5729 201.84 11.8575 200.631 11.4069L199.933 13.2811ZM202.236 14.874C202.794 15.4923 203.126 16.3773 203.126 17.645H205.126C205.126 16.0194 204.693 14.6103 203.721 13.534L202.236 14.874ZM203.126 17.645C203.126 18.6828 202.836 19.6238 202.245 20.4927L203.899 21.6173C204.713 20.4195 205.126 19.0872 205.126 17.645H203.126ZM202.242 20.4964C201.69 21.3168 200.825 22.0139 199.575 22.5553L200.369 24.3907C201.888 23.7334 203.09 22.8185 203.901 21.6136L202.242 20.4964ZM199.575 22.5553C198.348 23.0861 196.807 23.372 194.919 23.372V25.372C196.998 25.372 198.826 25.0585 200.369 24.3907L199.575 22.5553ZM209.696 23.69L209.41 24.6482C209.415 24.6496 209.42 24.6511 209.425 24.6524L209.696 23.69ZM205.852 21.861L204.941 21.45C204.75 21.8734 204.876 22.3725 205.244 22.6549L205.852 21.861ZM207.557 18.079L208.149 17.2726C207.905 17.0942 207.595 17.0352 207.303 17.1119C207.011 17.1887 206.77 17.393 206.646 17.668L207.557 18.079ZM210.874 19.722L211.181 18.7703L211.181 18.7703L210.874 19.722ZM217.88 19.722L218.399 20.5772C218.405 20.5734 218.411 20.5696 218.417 20.5657L217.88 19.722ZM218.283 16.746L217.617 17.4912C217.63 17.5035 217.644 17.5154 217.659 17.5269L218.283 16.746ZM216.733 15.909L216.417 16.8577L216.426 16.8607L216.733 15.909ZM214.191 15.227L213.96 16.2L213.967 16.2014L214.191 15.227ZM210.13 14.049L210.479 13.1119L210.479 13.1119L210.13 14.049ZM207.402 12.158L206.643 12.8089L206.652 12.819L207.402 12.158ZM207.309 5.276L208.139 5.83462L208.144 5.82684L207.309 5.276ZM210.378 2.827L209.981 1.90926L209.976 1.91148L210.378 2.827ZM219.492 2.424L219.735 1.45386L219.735 1.45386L219.492 2.424ZM222.964 3.85L223.891 4.22658C224.074 3.7763 223.907 3.25961 223.494 3.002L222.964 3.85ZM221.414 7.663L220.921 8.53289C221.171 8.67483 221.471 8.70205 221.743 8.60759C222.014 8.51314 222.232 8.30616 222.341 8.03958L221.414 7.663ZM212.269 6.64L211.715 5.80795C211.711 5.81059 211.707 5.81326 211.703 5.81596L212.269 6.64ZM212.424 10.112L211.987 11.0112C211.997 11.0159 212.006 11.0204 212.016 11.0248L212.424 10.112ZM215.989 11.166L216.22 10.1931C216.215 10.1918 216.21 10.1907 216.205 10.1895L215.989 11.166ZM220.05 12.344L220.399 11.4069L220.399 11.4069L220.05 12.344ZM222.747 14.204L221.996 14.8639L222.005 14.874L222.747 14.204ZM222.84 21.055L222.013 20.4927L222.011 20.4964L222.84 21.055ZM219.74 23.473L219.343 22.5553L219.343 22.5553L219.74 23.473ZM214.687 23.372C213.062 23.372 211.489 23.1567 209.968 22.7276L209.425 24.6524C211.127 25.1326 212.882 25.372 214.687 25.372V23.372ZM209.983 22.7318C208.469 22.2796 207.308 21.7161 206.46 21.0671L205.244 22.6549C206.34 23.4939 207.741 24.1497 209.41 24.6482L209.983 22.7318ZM206.764 22.272L208.469 18.49L206.646 17.668L204.941 21.45L206.764 22.272ZM206.966 18.8854C207.995 19.6404 209.201 20.2329 210.567 20.6737L211.181 18.7703C209.985 18.3845 208.979 17.8816 208.149 17.2726L206.966 18.8854ZM210.567 20.6737C211.943 21.1174 213.328 21.342 214.718 21.342V19.342C213.546 19.342 212.369 19.1533 211.181 18.7703L210.567 20.6737ZM214.718 21.342C216.203 21.342 217.48 21.1338 218.399 20.5772L217.362 18.8668C216.916 19.1369 216.086 19.342 214.718 19.342V21.342ZM218.417 20.5657C219.337 19.9805 219.903 19.1179 219.903 18.017H217.903C217.903 18.3214 217.788 18.5955 217.344 18.8783L218.417 20.5657ZM219.903 18.017C219.903 17.188 219.552 16.4802 218.908 15.9651L217.659 17.5269C217.842 17.6732 217.903 17.8127 217.903 18.017H219.903ZM218.95 16.0008C218.429 15.5342 217.779 15.1954 217.04 14.9573L216.426 16.8607C216.97 17.0359 217.353 17.2552 217.617 17.4912L218.95 16.0008ZM217.05 14.9603C216.386 14.7392 215.504 14.5036 214.416 14.2526L213.967 16.2014C215.028 16.4464 215.841 16.6655 216.417 16.8577L217.05 14.9603ZM214.422 14.2541C212.791 13.8666 211.481 13.4849 210.479 13.1119L209.781 14.9861C210.888 15.3984 212.285 15.802 213.96 16.1999L214.422 14.2541ZM210.479 13.1119C209.584 12.7785 208.812 12.2449 208.153 11.497L206.652 12.819C207.522 13.8071 208.568 14.5342 209.781 14.9861L210.479 13.1119ZM208.162 11.5072C207.611 10.8645 207.286 9.95912 207.286 8.686H205.286C205.286 10.3062 205.706 11.7155 206.643 12.8088L208.162 11.5072ZM207.286 8.686C207.286 7.61748 207.572 6.67658 208.139 5.8346L206.48 4.7174C205.683 5.90076 205.286 7.23318 205.286 8.686H207.286ZM208.144 5.82684C208.7 4.98424 209.557 4.28034 210.781 3.74252L209.976 1.91148C208.472 2.57232 207.283 3.50109 206.475 4.72516L208.144 5.82684ZM210.776 3.74472C212.002 3.21386 213.543 2.928 215.431 2.928V0.928C213.352 0.928 211.524 1.24147 209.981 1.90928L210.776 3.74472ZM215.431 2.928C216.736 2.928 218.008 3.08361 219.25 3.39414L219.735 1.45386C218.332 1.10305 216.897 0.928 215.431 0.928V2.928ZM219.25 3.39414C220.487 3.70351 221.545 4.14183 222.434 4.698L223.494 3.002C222.4 2.31817 221.143 1.80582 219.735 1.45386L219.25 3.39414ZM222.038 3.47342L220.488 7.28642L222.341 8.03958L223.891 4.22658L222.038 3.47342ZM221.908 6.79311C219.775 5.58408 217.602 4.958 215.4 4.958V6.958C217.208 6.958 219.044 7.46859 220.921 8.53289L221.908 6.79311ZM215.4 4.958C213.923 4.958 212.641 5.19045 211.715 5.80795L212.824 7.47205C213.262 7.18022 214.067 6.958 215.4 6.958V4.958ZM211.703 5.81596C210.795 6.43986 210.277 7.33527 210.277 8.438H212.277C212.277 8.05272 212.421 7.74947 212.836 7.46404L211.703 5.81596ZM210.277 8.438C210.277 8.9907 210.423 9.51773 210.739 9.97973C211.051 10.4341 211.488 10.7686 211.987 11.0112L212.862 9.21276C212.596 9.08341 212.46 8.9529 212.389 8.84927C212.323 8.75327 212.277 8.6293 212.277 8.438H210.277ZM212.016 11.0248C212.896 11.4184 214.164 11.787 215.774 12.1425L216.205 10.1895C214.632 9.8423 213.524 9.50823 212.833 9.19918L212.016 11.0248ZM215.758 12.1389C217.39 12.5264 218.7 12.9081 219.701 13.2811L220.399 11.4069C219.293 10.9946 217.896 10.591 216.22 10.1931L215.758 12.1389ZM219.701 13.2811C220.6 13.6159 221.361 14.1404 221.996 14.8638L223.499 13.5442C222.646 12.5729 221.609 11.8575 220.399 11.4069L219.701 13.2811ZM222.005 14.874C222.563 15.4923 222.894 16.3773 222.894 17.645H224.894C224.894 16.0194 224.461 14.6103 223.49 13.534L222.005 14.874ZM222.894 17.645C222.894 18.6828 222.604 19.6238 222.013 20.4927L223.667 21.6173C224.482 20.4195 224.894 19.0872 224.894 17.645H222.894ZM222.011 20.4964C221.458 21.3168 220.594 22.0139 219.343 22.5553L220.138 24.3907C221.656 23.7334 222.858 22.8185 223.67 21.6136L222.011 20.4964ZM219.343 22.5553C218.117 23.0861 216.576 23.372 214.687 23.372V25.372C216.767 25.372 218.595 25.0585 220.138 24.3907L219.343 22.5553ZM240.6 6.392H241.6C241.6 5.83971 241.153 5.392 240.6 5.392V6.392ZM233.656 6.392H232.656C232.656 6.94428 233.104 7.392 233.656 7.392V6.392ZM233.656 2.3V1.3C233.104 1.3 232.656 1.74771 232.656 2.3H233.656ZM252.566 2.3H253.566C253.566 1.74771 253.119 1.3 252.566 1.3V2.3ZM252.566 6.392V7.392C253.119 7.392 253.566 6.94428 253.566 6.392H252.566ZM245.622 6.392V5.392C245.07 5.392 244.622 5.83971 244.622 6.392H245.622ZM245.622 24V25C246.175 25 246.622 24.5523 246.622 24H245.622ZM240.6 24H239.6C239.6 24.5523 240.048 25 240.6 25V24ZM240.6 5.392H233.656V7.392H240.6V5.392ZM234.656 6.392V2.3H232.656V6.392H234.656ZM233.656 3.3H252.566V1.3H233.656V3.3ZM251.566 2.3V6.392H253.566V2.3H251.566ZM252.566 5.392H245.622V7.392H252.566V5.392ZM244.622 6.392V24H246.622V6.392H244.622ZM245.622 23H240.6V25H245.622V23ZM241.6 24V6.392H239.6V24H241.6ZM269.094 24L268.272 24.5692C268.459 24.839 268.766 25 269.094 25V24ZM264.909 17.955L265.732 17.3858C265.545 17.116 265.237 16.955 264.909 16.955V17.955ZM260.29 17.955V16.955C259.738 16.955 259.29 17.4027 259.29 17.955H260.29ZM260.29 24V25C260.843 25 261.29 24.5523 261.29 24H260.29ZM255.268 24H254.268C254.268 24.5523 254.716 25 255.268 25V24ZM255.268 2.3V1.3C254.716 1.3 254.268 1.74771 254.268 2.3H255.268ZM269.652 3.261L269.237 4.17092L269.242 4.17317L269.652 3.261ZM272.907 14.359L272.075 13.8043L272.073 13.8077L272.907 14.359ZM269.621 17.025L269.223 16.1079C268.948 16.2275 268.741 16.4642 268.659 16.7528C268.577 17.0413 268.63 17.3513 268.801 17.5972L269.621 17.025ZM274.488 24V25C274.861 25 275.203 24.7928 275.375 24.4625C275.547 24.1321 275.522 23.7333 275.308 23.4278L274.488 24ZM267.823 7.384L267.179 8.14891C267.183 8.15226 267.187 8.15558 267.191 8.15886L267.823 7.384ZM260.29 6.392V5.392C259.738 5.392 259.29 5.83971 259.29 6.392H260.29ZM260.29 13.956H259.29C259.29 14.5083 259.738 14.956 260.29 14.956V13.956ZM267.823 12.964L268.467 13.7289L268.467 13.7289L267.823 12.964ZM269.917 23.4308L265.732 17.3858L264.087 18.5242L268.272 24.5692L269.917 23.4308ZM264.909 16.955H264.661V18.955H264.909V16.955ZM264.661 16.955H260.29V18.955H264.661V16.955ZM259.29 17.955V24H261.29V17.955H259.29ZM260.29 23H255.268V25H260.29V23ZM256.268 24V2.3H254.268V24H256.268ZM255.268 3.3H264.661V1.3H255.268V3.3ZM264.661 3.3C266.474 3.3 267.99 3.60226 269.238 4.17091L270.067 2.35109C268.504 1.6384 266.692 1.3 264.661 1.3V3.3ZM269.242 4.17317C270.514 4.74427 271.451 5.53461 272.1 6.53347L273.777 5.44453C272.896 4.08739 271.643 3.05906 270.062 2.34883L269.242 4.17317ZM272.1 6.53347C272.744 7.52643 273.085 8.72595 273.085 10.174H275.085C275.085 8.39805 274.662 6.80757 273.777 5.44453L272.1 6.53347ZM273.085 10.174C273.085 11.6168 272.736 12.8126 272.075 13.8043L273.739 14.9137C274.649 13.5494 275.085 11.9552 275.085 10.174H273.085ZM272.073 13.8077C271.428 14.7845 270.493 15.5555 269.223 16.1079L270.02 17.9421C271.601 17.2545 272.858 16.2482 273.742 14.9103L272.073 13.8077ZM268.801 17.5972L273.668 24.5722L275.308 23.4278L270.441 16.4528L268.801 17.5972ZM274.488 23H269.094V25H274.488V23ZM270.001 10.174C270.001 8.72174 269.521 7.47863 268.455 6.60913L267.191 8.15886C267.696 8.57071 268.001 9.1876 268.001 10.174H270.001ZM268.467 6.61909C267.434 5.74866 266.019 5.392 264.382 5.392V7.392C265.763 7.392 266.642 7.69668 267.179 8.14891L268.467 6.61909ZM264.382 5.392H260.29V7.392H264.382V5.392ZM259.29 6.392V13.956H261.29V6.392H259.29ZM260.29 14.956H264.382V12.956H260.29V14.956ZM264.382 14.956C266.019 14.956 267.434 14.5993 268.467 13.7289L267.179 12.1991C266.642 12.6513 265.763 12.956 264.382 12.956V14.956ZM268.467 13.7289C269.517 12.8449 270.001 11.6128 270.001 10.174H268.001C268.001 11.1326 267.7 11.7605 267.179 12.1991L268.467 13.7289ZM292.355 19.35L293.279 18.968C293.125 18.594 292.76 18.35 292.355 18.35V19.35ZM282.28 19.35V18.35C281.875 18.35 281.511 18.594 281.356 18.968L282.28 19.35ZM280.358 24V25C280.763 25 281.128 24.756 281.282 24.382L280.358 24ZM275.212 24L274.299 23.5929C274.161 23.9023 274.189 24.2604 274.373 24.5445C274.558 24.8286 274.874 25 275.212 25V24ZM284.884 2.3V1.3C284.489 1.3 284.132 1.53229 283.971 1.89289L284.884 2.3ZM289.844 2.3L290.757 1.8918C290.596 1.53178 290.239 1.3 289.844 1.3V2.3ZM299.547 24V25C299.886 25 300.202 24.8283 300.386 24.544C300.571 24.2596 300.598 23.9012 300.46 23.5918L299.547 24ZM294.277 24L293.353 24.382C293.508 24.756 293.872 25 294.277 25V24ZM290.774 15.537V16.537C291.108 16.537 291.42 16.3703 291.606 16.0926C291.791 15.8149 291.826 15.4629 291.698 15.1543L290.774 15.537ZM287.333 7.229L288.257 6.84634C288.102 6.47265 287.738 6.229 287.333 6.229C286.929 6.229 286.564 6.47265 286.409 6.84634L287.333 7.229ZM283.892 15.537L282.968 15.1543C282.841 15.4629 282.875 15.8149 283.061 16.0926C283.246 16.3703 283.558 16.537 283.892 16.537V15.537ZM292.355 18.35H282.28V20.35H292.355V18.35ZM281.356 18.968L279.434 23.618L281.282 24.382L283.204 19.732L281.356 18.968ZM280.358 23H275.212V25H280.358V23ZM276.126 24.4071L285.798 2.70711L283.971 1.89289L274.299 23.5929L276.126 24.4071ZM284.884 3.3H289.844V1.3H284.884V3.3ZM288.931 2.70819L298.634 24.4082L300.46 23.5918L290.757 1.8918L288.931 2.70819ZM299.547 23H294.277V25H299.547V23ZM295.201 23.618L293.279 18.968L291.431 19.732L293.353 24.382L295.201 23.618ZM291.698 15.1543L288.257 6.84634L286.409 7.61166L289.85 15.9197L291.698 15.1543ZM286.409 6.84634L282.968 15.1543L284.816 15.9197L288.257 7.61166L286.409 6.84634ZM283.892 16.537H290.774V14.537H283.892V16.537ZM321.701 2.3H322.701C322.701 1.74771 322.253 1.3 321.701 1.3V2.3ZM321.701 24V25C322.253 25 322.701 24.5523 322.701 24H321.701ZM317.578 24L316.805 24.6346C316.995 24.8659 317.278 25 317.578 25V24ZM306.759 10.825L307.531 10.1904C307.263 9.86398 306.819 9.74116 306.422 9.88351C306.024 10.0258 305.759 10.4027 305.759 10.825H306.759ZM306.759 24V25C307.311 25 307.759 24.5523 307.759 24H306.759ZM301.799 24H300.799C300.799 24.5523 301.246 25 301.799 25V24ZM301.799 2.3V1.3C301.246 1.3 300.799 1.74771 300.799 2.3H301.799ZM305.953 2.3L306.726 1.66646C306.536 1.43451 306.252 1.3 305.953 1.3V2.3ZM316.741 15.475L315.967 16.1085C316.235 16.4355 316.679 16.5589 317.077 16.4167C317.475 16.2746 317.741 15.8976 317.741 15.475H316.741ZM316.741 2.3V1.3C316.188 1.3 315.741 1.74771 315.741 2.3H316.741ZM320.701 2.3V24H322.701V2.3H320.701ZM321.701 23H317.578V25H321.701V23ZM318.35 23.3654L307.531 10.1904L305.986 11.4596L316.805 24.6346L318.35 23.3654ZM305.759 10.825V24H307.759V10.825H305.759ZM306.759 23H301.799V25H306.759V23ZM302.799 24V2.3H300.799V24H302.799ZM301.799 3.3H305.953V1.3H301.799V3.3ZM305.179 2.93353L315.967 16.1085L317.514 14.8415L306.726 1.66646L305.179 2.93353ZM317.741 15.475V2.3H315.741V15.475H317.741ZM316.741 3.3H321.701V1.3H316.741V3.3ZM328.974 23.69L328.688 24.6482C328.692 24.6496 328.697 24.6511 328.702 24.6524L328.974 23.69ZM325.13 21.861L324.218 21.45C324.027 21.8734 324.153 22.3725 324.522 22.6549L325.13 21.861ZM326.835 18.079L327.426 17.2726C327.183 17.0942 326.872 17.0352 326.58 17.1119C326.289 17.1887 326.047 17.393 325.923 17.668L326.835 18.079ZM330.152 19.722L330.459 18.7703L330.459 18.7703L330.152 19.722ZM337.158 19.722L337.676 20.5772C337.682 20.5734 337.688 20.5696 337.695 20.5657L337.158 19.722ZM337.561 16.746L336.894 17.4912C336.908 17.5035 336.922 17.5154 336.936 17.5269L337.561 16.746ZM336.011 15.909L335.694 16.8577L335.704 16.8607L336.011 15.909ZM333.469 15.227L333.238 16.2L333.244 16.2014L333.469 15.227ZM329.408 14.049L329.757 13.1119L329.757 13.1119L329.408 14.049ZM326.68 12.158L325.92 12.8089L325.929 12.819L326.68 12.158ZM326.587 5.276L327.416 5.83462L327.421 5.82684L326.587 5.276ZM329.656 2.827L329.258 1.90926L329.253 1.91148L329.656 2.827ZM338.77 2.424L339.012 1.45386L339.012 1.45386L338.77 2.424ZM342.242 3.85L343.168 4.22658C343.351 3.7763 343.184 3.25961 342.772 3.002L342.242 3.85ZM340.692 7.663L340.198 8.53289C340.449 8.67483 340.748 8.70205 341.02 8.60759C341.292 8.51314 341.51 8.30616 341.618 8.03958L340.692 7.663ZM331.547 6.64L330.992 5.80795C330.988 5.81059 330.984 5.81326 330.98 5.81596L331.547 6.64ZM331.702 10.112L331.264 11.0112C331.274 11.0159 331.284 11.0204 331.293 11.0248L331.702 10.112ZM335.267 11.166L335.498 10.1931C335.493 10.1918 335.487 10.1907 335.482 10.1895L335.267 11.166ZM339.328 12.344L339.677 11.4069L339.677 11.4069L339.328 12.344ZM342.025 14.204L341.273 14.8639L341.282 14.874L342.025 14.204ZM342.118 21.055L341.291 20.4927L341.288 20.4964L342.118 21.055ZM339.018 23.473L338.62 22.5553L338.62 22.5553L339.018 23.473ZM333.965 23.372C332.339 23.372 330.767 23.1567 329.245 22.7276L328.702 24.6524C330.405 25.1326 332.16 25.372 333.965 25.372V23.372ZM329.26 22.7318C327.746 22.2796 326.585 21.7161 325.738 21.0671L324.522 22.6549C325.617 23.4939 327.019 24.1497 328.688 24.6482L329.26 22.7318ZM326.041 22.272L327.746 18.49L325.923 17.668L324.218 21.45L326.041 22.272ZM326.243 18.8854C327.273 19.6404 328.478 20.2329 329.845 20.6737L330.459 18.7703C329.263 18.3845 328.257 17.8816 327.426 17.2726L326.243 18.8854ZM329.845 20.6737C331.22 21.1174 332.605 21.342 333.996 21.342V19.342C332.824 19.342 331.646 19.1533 330.459 18.7703L329.845 20.6737ZM333.996 21.342C335.48 21.342 336.758 21.1338 337.676 20.5772L336.639 18.8668C336.194 19.1369 335.363 19.342 333.996 19.342V21.342ZM337.695 20.5657C338.614 19.9805 339.181 19.1179 339.181 18.017H337.181C337.181 18.3214 337.065 18.5955 336.621 18.8783L337.695 20.5657ZM339.181 18.017C339.181 17.188 338.829 16.4802 338.185 15.9651L336.936 17.5269C337.119 17.6732 337.181 17.8127 337.181 18.017H339.181ZM338.228 16.0008C337.706 15.5342 337.056 15.1954 336.318 14.9573L335.704 16.8607C336.247 17.0359 336.63 17.2552 336.894 17.4912L338.228 16.0008ZM336.327 14.9603C335.663 14.7392 334.781 14.5036 333.694 14.2526L333.244 16.2014C334.306 16.4464 335.118 16.6655 335.694 16.8577L336.327 14.9603ZM333.7 14.2541C332.069 13.8666 330.758 13.4849 329.757 13.1119L329.059 14.9861C330.165 15.3984 331.562 15.802 333.238 16.1999L333.7 14.2541ZM329.757 13.1119C328.862 12.7785 328.089 12.2449 327.43 11.497L325.929 12.819C326.8 13.8071 327.846 14.5342 329.059 14.9861L329.757 13.1119ZM327.439 11.5072C326.888 10.8645 326.564 9.95912 326.564 8.686H324.564C324.564 10.3062 324.983 11.7155 325.92 12.8088L327.439 11.5072ZM326.564 8.686C326.564 7.61748 326.849 6.67658 327.416 5.8346L325.757 4.7174C324.96 5.90076 324.564 7.23318 324.564 8.686H326.564ZM327.421 5.82684C327.977 4.98424 328.834 4.28034 330.058 3.74252L329.253 1.91148C327.749 2.57232 326.56 3.50109 325.752 4.72516L327.421 5.82684ZM330.053 3.74472C331.279 3.21386 332.82 2.928 334.709 2.928V0.928C332.629 0.928 330.801 1.24147 329.258 1.90928L330.053 3.74472ZM334.709 2.928C336.013 2.928 337.285 3.08361 338.527 3.39414L339.012 1.45386C337.609 1.10305 336.174 0.928 334.709 0.928V2.928ZM338.527 3.39414C339.765 3.70351 340.822 4.14183 341.712 4.698L342.772 3.002C341.678 2.31817 340.42 1.80582 339.012 1.45386L338.527 3.39414ZM341.315 3.47342L339.765 7.28642L341.618 8.03958L343.168 4.22658L341.315 3.47342ZM341.185 6.79311C339.053 5.58408 336.88 4.958 334.678 4.958V6.958C336.485 6.958 338.321 7.46859 340.198 8.53289L341.185 6.79311ZM334.678 4.958C333.2 4.958 331.918 5.19045 330.992 5.80795L332.101 7.47205C332.539 7.18022 333.345 6.958 334.678 6.958V4.958ZM330.98 5.81596C330.073 6.43986 329.555 7.33527 329.555 8.438H331.555C331.555 8.05272 331.698 7.74947 332.113 7.46404L330.98 5.81596ZM329.555 8.438C329.555 8.9907 329.7 9.51773 330.017 9.97973C330.328 10.4341 330.765 10.7686 331.264 11.0112L332.139 9.21276C331.873 9.08341 331.737 8.9529 331.666 8.84927C331.601 8.75327 331.555 8.6293 331.555 8.438H329.555ZM331.293 11.0248C332.173 11.4184 333.441 11.787 335.051 12.1425L335.482 10.1895C333.91 9.8423 332.801 9.50823 332.11 9.19918L331.293 11.0248ZM335.036 12.1389C336.667 12.5264 337.977 12.9081 338.979 13.2811L339.677 11.4069C338.57 10.9946 337.173 10.591 335.498 10.1931L335.036 12.1389ZM338.979 13.2811C339.877 13.6159 340.638 14.1404 341.273 14.8638L342.776 13.5442C341.923 12.5729 340.886 11.8575 339.677 11.4069L338.979 13.2811ZM341.282 14.874C341.84 15.4923 342.172 16.3773 342.172 17.645H344.172C344.172 16.0194 343.738 14.6103 342.767 13.534L341.282 14.874ZM342.172 17.645C342.172 18.6828 341.882 19.6238 341.291 20.4927L342.945 21.6173C343.759 20.4195 344.172 19.0872 344.172 17.645H342.172ZM341.288 20.4964C340.736 21.3168 339.871 22.0139 338.62 22.5553L339.415 24.3907C340.934 23.7334 342.136 22.8185 342.947 21.6136L341.288 20.4964ZM338.62 22.5553C337.394 23.0861 335.853 23.372 333.965 23.372V25.372C336.044 25.372 337.872 25.0585 339.415 24.3907L338.62 22.5553ZM360.987 3.261L360.572 4.17092L360.577 4.17317L360.987 3.261ZM364.273 14.359L365.112 14.9035L365.116 14.8968L364.273 14.359ZM360.987 17.087L361.391 18.0019L361.397 17.9992L360.987 17.087ZM351.625 18.017V17.017C351.073 17.017 350.625 17.4647 350.625 18.017H351.625ZM351.625 24V25C352.178 25 352.625 24.5523 352.625 24H351.625ZM346.603 24H345.603C345.603 24.5523 346.051 25 346.603 25V24ZM346.603 2.3V1.3C346.051 1.3 345.603 1.74771 345.603 2.3H346.603ZM359.158 12.964L359.79 13.7389C359.794 13.7356 359.798 13.7323 359.802 13.7289L359.158 12.964ZM359.158 7.384L358.514 8.14891C358.518 8.15226 358.522 8.15558 358.526 8.15886L359.158 7.384ZM351.625 6.392V5.392C351.073 5.392 350.625 5.83971 350.625 6.392H351.625ZM351.625 13.925H350.625C350.625 14.4773 351.073 14.925 351.625 14.925V13.925ZM355.996 3.3C357.809 3.3 359.325 3.60226 360.572 4.17091L361.402 2.35109C359.839 1.6384 358.027 1.3 355.996 1.3V3.3ZM360.577 4.17317C361.849 4.74427 362.786 5.53461 363.434 6.53347L365.112 5.44453C364.231 4.08739 362.978 3.05906 361.397 2.34883L360.577 4.17317ZM363.434 6.53347C364.079 7.52643 364.42 8.72595 364.42 10.174H366.42C366.42 8.39805 365.997 6.80757 365.112 5.44453L363.434 6.53347ZM364.42 10.174C364.42 11.5982 364.08 12.8019 363.43 13.8212L365.116 14.8968C365.995 13.5188 366.42 11.9325 366.42 10.174H364.42ZM363.434 13.8145C362.786 14.8134 361.849 15.6037 360.577 16.1748L361.397 17.9992C362.978 17.2889 364.231 16.2606 365.112 14.9035L363.434 13.8145ZM360.584 16.1721C359.333 16.7238 357.813 17.017 355.996 17.017V19.017C358.023 19.017 359.831 18.6902 361.391 18.0019L360.584 16.1721ZM355.996 17.017H351.625V19.017H355.996V17.017ZM350.625 18.017V24H352.625V18.017H350.625ZM351.625 23H346.603V25H351.625V23ZM347.603 24V2.3H345.603V24H347.603ZM346.603 3.3H355.996V1.3H346.603V3.3ZM355.717 14.925C357.348 14.925 358.758 14.5814 359.79 13.7389L358.526 12.1891C357.988 12.6279 357.104 12.925 355.717 12.925V14.925ZM359.802 13.7289C360.852 12.8449 361.336 11.6128 361.336 10.174H359.336C359.336 11.1326 359.035 11.7605 358.514 12.1991L359.802 13.7289ZM361.336 10.174C361.336 8.72174 360.856 7.47863 359.79 6.60913L358.526 8.15886C359.031 8.57071 359.336 9.1876 359.336 10.174H361.336ZM359.802 6.61909C358.769 5.74866 357.354 5.392 355.717 5.392V7.392C357.098 7.392 357.977 7.69668 358.514 8.14891L359.802 6.61909ZM355.717 5.392H351.625V7.392H355.717V5.392ZM350.625 6.392V13.925H352.625V6.392H350.625ZM351.625 14.925H355.717V12.925H351.625V14.925ZM373.71 22.915L373.235 23.7948L373.239 23.7971L373.71 22.915ZM369.463 18.916L368.602 19.4244C368.605 19.4285 368.607 19.4325 368.61 19.4366L369.463 18.916ZM369.463 7.415L368.607 6.89898L368.605 6.90204L369.463 7.415ZM373.71 3.385L373.239 2.50291L373.235 2.50518L373.71 3.385ZM390.14 7.415L389.284 7.93102L389.287 7.93561L390.14 7.415ZM390.14 18.916L390.994 19.4366L390.997 19.432L390.14 18.916ZM385.893 22.915L386.369 23.7948L386.369 23.7948L385.893 22.915ZM383.289 19.226L383.778 20.0985C383.782 20.096 383.787 20.0936 383.791 20.091L383.289 19.226ZM385.707 16.746L384.838 16.2517C384.836 16.256 384.833 16.2604 384.831 16.2647L385.707 16.746ZM385.707 9.554L384.831 10.0353C384.833 10.0396 384.836 10.044 384.838 10.0483L385.707 9.554ZM383.289 7.105L382.788 7.97003C382.792 7.97256 382.796 7.97505 382.801 7.97751L383.289 7.105ZM376.345 7.105L376.834 7.97751C376.838 7.97505 376.843 7.97256 376.847 7.97003L376.345 7.105ZM373.896 9.554L373.027 9.0597C373.025 9.06403 373.022 9.06837 373.02 9.07274L373.896 9.554ZM373.896 16.746L373.02 17.2273C373.022 17.2316 373.025 17.236 373.027 17.2403L373.896 16.746ZM376.345 19.226L375.844 20.091C375.848 20.0936 375.852 20.096 375.857 20.0985L376.345 19.226ZM379.817 23.372C377.713 23.372 375.842 22.9198 374.181 22.0329L373.239 23.7971C375.216 24.8528 377.416 25.372 379.817 25.372V23.372ZM374.186 22.0352C372.539 21.1454 371.256 19.9343 370.317 18.3954L368.61 19.4366C369.738 21.287 371.286 22.742 373.235 23.7948L374.186 22.0352ZM370.324 18.4076C369.409 16.8569 368.944 15.1126 368.944 13.15H366.944C366.944 15.4448 367.492 17.5444 368.602 19.4244L370.324 18.4076ZM368.944 13.15C368.944 11.1873 369.409 9.45546 370.322 7.92795L368.605 6.90204C367.492 8.76388 366.944 10.8553 366.944 13.15H368.944ZM370.32 7.93101C371.259 6.37212 372.542 5.15299 374.186 4.26482L373.235 2.50518C371.283 3.55968 369.734 5.02721 368.607 6.89899L370.32 7.93101ZM374.181 4.26707C375.842 3.38017 377.713 2.928 379.817 2.928V0.928C377.416 0.928 375.216 1.44716 373.239 2.50292L374.181 4.26707ZM379.817 2.928C381.921 2.928 383.781 3.38021 385.418 4.26482L386.369 2.50518C384.41 1.44712 382.219 0.928 379.817 0.928V2.928ZM385.418 4.26482C387.062 5.15299 388.345 6.37212 389.284 7.93101L390.997 6.89899C389.869 5.02721 388.321 3.55968 386.369 2.50518L385.418 4.26482ZM389.287 7.93561C390.217 9.46205 390.69 11.1912 390.69 13.15H392.69C392.69 10.8515 392.13 8.75728 390.994 6.89439L389.287 7.93561ZM390.69 13.15C390.69 15.1087 390.217 16.8503 389.284 18.4L390.997 19.432C392.13 17.551 392.69 15.4486 392.69 13.15H390.69ZM389.287 18.3954C388.348 19.9343 387.065 21.1454 385.418 22.0352L386.369 23.7948C388.318 22.742 389.866 21.287 390.994 19.4366L389.287 18.3954ZM385.418 22.0352C383.781 22.9198 381.921 23.372 379.817 23.372V25.372C382.219 25.372 384.41 24.8529 386.369 23.7948L385.418 22.0352ZM379.817 21.094C381.255 21.094 382.583 20.7675 383.778 20.0985L382.801 18.3535C381.929 18.8418 380.942 19.094 379.817 19.094V21.094ZM383.791 20.091C384.983 19.3997 385.918 18.4398 386.584 17.2273L384.831 16.2647C384.339 17.1602 383.662 17.8537 382.788 18.361L383.791 20.091ZM386.577 17.2403C387.271 16.0198 387.606 14.6475 387.606 13.15H385.606C385.606 14.3392 385.343 15.3642 384.838 16.2517L386.577 17.2403ZM387.606 13.15C387.606 11.6525 387.271 10.2802 386.577 9.0597L384.838 10.0483C385.343 10.9358 385.606 11.9608 385.606 13.15H387.606ZM386.584 9.07274C385.917 7.85721 384.977 6.90414 383.778 6.23249L382.801 7.97751C383.668 8.4632 384.341 9.14278 384.831 10.0353L386.584 9.07274ZM383.791 6.23997C382.594 5.54581 381.262 5.206 379.817 5.206V7.206C380.936 7.206 381.918 7.46552 382.788 7.97003L383.791 6.23997ZM379.817 5.206C378.373 5.206 377.04 5.54581 375.844 6.23997L376.847 7.97003C377.717 7.46552 378.699 7.206 379.817 7.206V5.206ZM375.857 6.23249C374.661 6.90239 373.714 7.85126 373.027 9.0597L374.766 10.0483C375.277 9.14874 375.964 8.46494 376.834 7.97751L375.857 6.23249ZM373.02 9.07274C372.351 10.2909 372.028 11.6585 372.028 13.15H374.028C374.028 11.9548 374.284 10.9251 374.773 10.0353L373.02 9.07274ZM372.028 13.15C372.028 14.6415 372.351 16.0091 373.02 17.2273L374.773 16.2647C374.284 15.3749 374.028 14.3452 374.028 13.15H372.028ZM373.027 17.2403C373.713 18.4458 374.655 19.4015 375.844 20.091L376.847 18.361C375.969 17.8519 375.279 17.1542 374.766 16.2517L373.027 17.2403ZM375.857 20.0985C377.051 20.7675 378.379 21.094 379.817 21.094V19.094C378.693 19.094 377.706 18.8418 376.834 18.3535L375.857 20.0985ZM409.291 24L408.468 24.5692C408.655 24.839 408.962 25 409.291 25V24ZM405.106 17.955L405.928 17.3858C405.741 17.116 405.434 16.955 405.106 16.955V17.955ZM400.487 17.955V16.955C399.934 16.955 399.487 17.4027 399.487 17.955H400.487ZM400.487 24V25C401.039 25 401.487 24.5523 401.487 24H400.487ZM395.465 24H394.465C394.465 24.5523 394.912 25 395.465 25V24ZM395.465 2.3V1.3C394.912 1.3 394.465 1.74771 394.465 2.3H395.465ZM409.849 3.261L409.434 4.17092L409.439 4.17317L409.849 3.261ZM413.104 14.359L412.272 13.8043L412.269 13.8077L413.104 14.359ZM409.818 17.025L409.419 16.1079C409.144 16.2275 408.937 16.4642 408.855 16.7528C408.774 17.0413 408.826 17.3513 408.998 17.5972L409.818 17.025ZM414.685 24V25C415.057 25 415.399 24.7928 415.571 24.4625C415.744 24.1321 415.718 23.7333 415.505 23.4278L414.685 24ZM408.02 7.384L407.375 8.14891C407.379 8.15226 407.383 8.15558 407.387 8.15886L408.02 7.384ZM400.487 6.392V5.392C399.934 5.392 399.487 5.83971 399.487 6.392H400.487ZM400.487 13.956H399.487C399.487 14.5083 399.934 14.956 400.487 14.956V13.956ZM408.02 12.964L408.664 13.7289L408.664 13.7289L408.02 12.964ZM410.113 23.4308L405.928 17.3858L404.283 18.5242L408.468 24.5692L410.113 23.4308ZM405.106 16.955H404.858V18.955H405.106V16.955ZM404.858 16.955H400.487V18.955H404.858V16.955ZM399.487 17.955V24H401.487V17.955H399.487ZM400.487 23H395.465V25H400.487V23ZM396.465 24V2.3H394.465V24H396.465ZM395.465 3.3H404.858V1.3H395.465V3.3ZM404.858 3.3C406.67 3.3 408.186 3.60226 409.434 4.17091L410.263 2.35109C408.7 1.6384 406.889 1.3 404.858 1.3V3.3ZM409.439 4.17317C410.71 4.74427 411.647 5.53461 412.296 6.53347L413.973 5.44453C413.092 4.08739 411.839 3.05906 410.258 2.34883L409.439 4.17317ZM412.296 6.53347C412.94 7.52643 413.282 8.72595 413.282 10.174H415.282C415.282 8.39805 414.858 6.80757 413.973 5.44453L412.296 6.53347ZM413.282 10.174C413.282 11.6168 412.933 12.8126 412.272 13.8043L413.936 14.9137C414.845 13.5494 415.282 11.9552 415.282 10.174H413.282ZM412.269 13.8077C411.624 14.7845 410.69 15.5555 409.419 16.1079L410.216 17.9421C411.798 17.2545 413.054 16.2482 413.938 14.9103L412.269 13.8077ZM408.998 17.5972L413.865 24.5722L415.505 23.4278L410.638 16.4528L408.998 17.5972ZM414.685 23H409.291V25H414.685V23ZM410.198 10.174C410.198 8.72174 409.718 7.47863 408.652 6.60913L407.387 8.15886C407.892 8.57071 408.198 9.1876 408.198 10.174H410.198ZM408.664 6.61909C407.63 5.74866 406.215 5.392 404.579 5.392V7.392C405.959 7.392 406.838 7.69668 407.375 8.14891L408.664 6.61909ZM404.579 5.392H400.487V7.392H404.579V5.392ZM399.487 6.392V13.956H401.487V6.392H399.487ZM400.487 14.956H404.579V12.956H400.487V14.956ZM404.579 14.956C406.215 14.956 407.63 14.5993 408.664 13.7289L407.375 12.1991C406.838 12.6513 405.959 12.956 404.579 12.956V14.956ZM408.664 13.7289C409.714 12.8449 410.198 11.6128 410.198 10.174H408.198C408.198 11.1326 407.896 11.7605 407.375 12.1991L408.664 13.7289ZM422.453 6.392H423.453C423.453 5.83971 423.005 5.392 422.453 5.392V6.392ZM415.509 6.392H414.509C414.509 6.94428 414.956 7.392 415.509 7.392V6.392ZM415.509 2.3V1.3C414.956 1.3 414.509 1.74771 414.509 2.3H415.509ZM434.419 2.3H435.419C435.419 1.74771 434.971 1.3 434.419 1.3V2.3ZM434.419 6.392V7.392C434.971 7.392 435.419 6.94428 435.419 6.392H434.419ZM427.475 6.392V5.392C426.922 5.392 426.475 5.83971 426.475 6.392H427.475ZM427.475 24V25C428.027 25 428.475 24.5523 428.475 24H427.475ZM422.453 24H421.453C421.453 24.5523 421.9 25 422.453 25V24ZM422.453 5.392H415.509V7.392H422.453V5.392ZM416.509 6.392V2.3H414.509V6.392H416.509ZM415.509 3.3H434.419V1.3H415.509V3.3ZM433.419 2.3V6.392H435.419V2.3H433.419ZM434.419 5.392H427.475V7.392H434.419V5.392ZM426.475 6.392V24H428.475V6.392H426.475ZM427.475 23H422.453V25H427.475V23ZM423.453 24V6.392H421.453V24H423.453ZM448.039 23.69L447.753 24.6482C447.758 24.6496 447.763 24.6511 447.768 24.6524L448.039 23.69ZM444.195 21.861L443.284 21.45C443.093 21.8734 443.218 22.3725 443.587 22.6549L444.195 21.861ZM445.9 18.079L446.492 17.2726C446.248 17.0942 445.937 17.0352 445.646 17.1119C445.354 17.1887 445.112 17.393 444.989 17.668L445.9 18.079ZM449.217 19.722L449.524 18.7703L449.524 18.7703L449.217 19.722ZM456.223 19.722L456.741 20.5772C456.748 20.5734 456.754 20.5696 456.76 20.5657L456.223 19.722ZM456.626 16.746L455.959 17.4912C455.973 17.5035 455.987 17.5154 456.001 17.5269L456.626 16.746ZM455.076 15.909L454.76 16.8577L454.769 16.8607L455.076 15.909ZM452.534 15.227L452.303 16.2L452.309 16.2014L452.534 15.227ZM448.473 14.049L448.822 13.1119L448.822 13.1119L448.473 14.049ZM445.745 12.158L444.986 12.8089L444.995 12.819L445.745 12.158ZM445.652 5.276L446.482 5.83462L446.487 5.82684L445.652 5.276ZM448.721 2.827L448.324 1.90926L448.319 1.91148L448.721 2.827ZM457.835 2.424L458.078 1.45386L458.078 1.45386L457.835 2.424ZM461.307 3.85L462.234 4.22658C462.417 3.7763 462.249 3.25961 461.837 3.002L461.307 3.85ZM459.757 7.663L459.264 8.53289C459.514 8.67483 459.814 8.70205 460.085 8.60759C460.357 8.51314 460.575 8.30616 460.684 8.03958L459.757 7.663ZM450.612 6.64L450.057 5.80795C450.053 5.81059 450.05 5.81326 450.046 5.81596L450.612 6.64ZM450.767 10.112L450.33 11.0112C450.339 11.0159 450.349 11.0204 450.359 11.0248L450.767 10.112ZM454.332 11.166L454.563 10.1931C454.558 10.1918 454.553 10.1907 454.548 10.1895L454.332 11.166ZM458.393 12.344L458.742 11.4069L458.742 11.4069L458.393 12.344ZM461.09 14.204L460.339 14.8639L460.348 14.874L461.09 14.204ZM461.183 21.055L460.356 20.4927L460.354 20.4964L461.183 21.055ZM458.083 23.473L457.686 22.5553L457.686 22.5553L458.083 23.473ZM453.03 23.372C451.404 23.372 449.832 23.1567 448.311 22.7276L447.768 24.6524C449.47 25.1326 451.225 25.372 453.03 25.372V23.372ZM448.325 22.7318C446.811 22.2796 445.65 21.7161 444.803 21.0671L443.587 22.6549C444.683 23.4939 446.084 24.1497 447.753 24.6482L448.325 22.7318ZM445.107 22.272L446.812 18.49L444.989 17.668L443.284 21.45L445.107 22.272ZM445.309 18.8854C446.338 19.6404 447.544 20.2329 448.91 20.6737L449.524 18.7703C448.328 18.3845 447.322 17.8816 446.492 17.2726L445.309 18.8854ZM448.91 20.6737C450.286 21.1174 451.67 21.342 453.061 21.342V19.342C451.889 19.342 450.711 19.1533 449.524 18.7703L448.91 20.6737ZM453.061 21.342C454.546 21.342 455.823 21.1338 456.741 20.5772L455.705 18.8668C455.259 19.1369 454.429 19.342 453.061 19.342V21.342ZM456.76 20.5657C457.68 19.9805 458.246 19.1179 458.246 18.017H456.246C456.246 18.3214 456.131 18.5955 455.686 18.8783L456.76 20.5657ZM458.246 18.017C458.246 17.188 457.895 16.4802 457.251 15.9651L456.001 17.5269C456.184 17.6732 456.246 17.8127 456.246 18.017H458.246ZM457.293 16.0008C456.771 15.5342 456.121 15.1954 455.383 14.9573L454.769 16.8607C455.312 17.0359 455.696 17.2552 455.959 17.4912L457.293 16.0008ZM455.392 14.9603C454.729 14.7392 453.847 14.5036 452.759 14.2526L452.309 16.2014C453.371 16.4464 454.183 16.6655 454.76 16.8577L455.392 14.9603ZM452.765 14.2541C451.134 13.8666 449.824 13.4849 448.822 13.1119L448.124 14.9861C449.231 15.3984 450.628 15.802 452.303 16.1999L452.765 14.2541ZM448.822 13.1119C447.927 12.7785 447.154 12.2449 446.496 11.497L444.995 12.819C445.865 13.8071 446.911 14.5342 448.124 14.9861L448.822 13.1119ZM446.504 11.5072C445.953 10.8645 445.629 9.95912 445.629 8.686H443.629C443.629 10.3062 444.049 11.7155 444.986 12.8088L446.504 11.5072ZM445.629 8.686C445.629 7.61748 445.915 6.67658 446.482 5.8346L444.823 4.7174C444.026 5.90076 443.629 7.23318 443.629 8.686H445.629ZM446.487 5.82684C447.043 4.98424 447.899 4.28034 449.123 3.74252L448.319 1.91148C446.815 2.57232 445.625 3.50109 444.818 4.72516L446.487 5.82684ZM449.118 3.74472C450.345 3.21386 451.886 2.928 453.774 2.928V0.928C451.694 0.928 449.867 1.24147 448.324 1.90928L449.118 3.74472ZM453.774 2.928C455.078 2.928 456.351 3.08361 457.593 3.39414L458.078 1.45386C456.674 1.10305 455.239 0.928 453.774 0.928V2.928ZM457.593 3.39414C458.83 3.70351 459.887 4.14183 460.777 4.698L461.837 3.002C460.743 2.31817 459.486 1.80582 458.078 1.45386L457.593 3.39414ZM460.381 3.47342L458.831 7.28642L460.684 8.03958L462.234 4.22658L460.381 3.47342ZM460.25 6.79311C458.118 5.58408 455.945 4.958 453.743 4.958V6.958C455.55 6.958 457.387 7.46859 459.264 8.53289L460.25 6.79311ZM453.743 4.958C452.266 4.958 450.984 5.19045 450.057 5.80795L451.167 7.47205C451.605 7.18022 452.41 6.958 453.743 6.958V4.958ZM450.046 5.81596C449.138 6.43986 448.62 7.33527 448.62 8.438H450.62C450.62 8.05272 450.764 7.74947 451.179 7.46404L450.046 5.81596ZM448.62 8.438C448.62 8.9907 448.765 9.51773 449.082 9.97973C449.393 10.4341 449.831 10.7686 450.33 11.0112L451.205 9.21276C450.939 9.08341 450.803 8.9529 450.732 8.84927C450.666 8.75327 450.62 8.6293 450.62 8.438H448.62ZM450.359 11.0248C451.239 11.4184 452.507 11.787 454.117 12.1425L454.548 10.1895C452.975 9.8423 451.866 9.50823 451.176 9.19918L450.359 11.0248ZM454.101 12.1389C455.732 12.5264 457.043 12.9081 458.044 13.2811L458.742 11.4069C457.636 10.9946 456.239 10.591 454.563 10.1931L454.101 12.1389ZM458.044 13.2811C458.943 13.6159 459.704 14.1404 460.339 14.8638L461.842 13.5442C460.989 12.5729 459.952 11.8575 458.742 11.4069L458.044 13.2811ZM460.348 14.874C460.906 15.4923 461.237 16.3773 461.237 17.645H463.237C463.237 16.0194 462.804 14.6103 461.833 13.534L460.348 14.874ZM461.237 17.645C461.237 18.6828 460.947 19.6238 460.356 20.4927L462.01 21.6173C462.825 20.4195 463.237 19.0872 463.237 17.645H461.237ZM460.354 20.4964C459.801 21.3168 458.937 22.0139 457.686 22.5553L458.48 24.3907C459.999 23.7334 461.201 22.8185 462.013 21.6136L460.354 20.4964ZM457.686 22.5553C456.459 23.0861 454.918 23.372 453.03 23.372V25.372C455.11 25.372 456.938 25.0585 458.48 24.3907L457.686 22.5553ZM475.631 16.312L474.774 15.7964C474.68 15.9521 474.631 16.1303 474.631 16.312H475.631ZM475.631 24V25C476.183 25 476.631 24.5523 476.631 24H475.631ZM470.609 24H469.609C469.609 24.5523 470.056 25 470.609 25V24ZM470.609 16.25H471.609C471.609 16.0682 471.559 15.8898 471.465 15.7341L470.609 16.25ZM462.208 2.3V1.3C461.847 1.3 461.514 1.4941 461.337 1.80801C461.16 2.12192 461.165 2.50702 461.351 2.81589L462.208 2.3ZM467.54 2.3L468.397 1.78469C468.216 1.48395 467.891 1.3 467.54 1.3V2.3ZM473.337 11.941L472.48 12.4563C472.66 12.7571 472.986 12.941 473.337 12.941C473.688 12.941 474.013 12.7571 474.194 12.4563L473.337 11.941ZM479.134 2.3V1.3C478.783 1.3 478.457 1.48395 478.277 1.78469L479.134 2.3ZM484.063 2.3L484.919 2.81561C485.105 2.50672 485.111 2.12169 484.933 1.80787C484.756 1.49404 484.423 1.3 484.063 1.3V2.3ZM474.631 16.312V24H476.631V16.312H474.631ZM475.631 23H470.609V25H475.631V23ZM471.609 24V16.25H469.609V24H471.609ZM471.465 15.7341L463.064 1.7841L461.351 2.81589L469.752 16.7659L471.465 15.7341ZM462.208 3.3H467.54V1.3H462.208V3.3ZM466.683 2.8153L472.48 12.4563L474.194 11.4257L468.397 1.78469L466.683 2.8153ZM474.194 12.4563L479.991 2.8153L478.277 1.78469L472.48 11.4257L474.194 12.4563ZM479.134 3.3H484.063V1.3H479.134V3.3ZM483.206 1.78439L474.774 15.7964L476.487 16.8276L484.919 2.81561L483.206 1.78439ZM487.849 23.69L487.563 24.6482C487.567 24.6496 487.572 24.6511 487.577 24.6524L487.849 23.69ZM484.005 21.861L483.093 21.45C482.902 21.8734 483.028 22.3725 483.397 22.6549L484.005 21.861ZM485.71 18.079L486.301 17.2726C486.058 17.0942 485.747 17.0352 485.455 17.1119C485.164 17.1887 484.922 17.393 484.798 17.668L485.71 18.079ZM489.027 19.722L489.334 18.7703L489.334 18.7703L489.027 19.722ZM496.033 19.722L496.551 20.5772C496.557 20.5734 496.563 20.5696 496.57 20.5657L496.033 19.722ZM496.436 16.746L495.769 17.4912C495.783 17.5035 495.797 17.5154 495.811 17.5269L496.436 16.746ZM494.886 15.909L494.569 16.8577L494.579 16.8607L494.886 15.909ZM492.344 15.227L492.113 16.2L492.119 16.2014L492.344 15.227ZM488.283 14.049L488.632 13.1119L488.632 13.1119L488.283 14.049ZM485.555 12.158L484.795 12.8089L484.804 12.819L485.555 12.158ZM485.462 5.276L486.291 5.83462L486.296 5.82684L485.462 5.276ZM488.531 2.827L488.133 1.90926L488.128 1.91148L488.531 2.827ZM497.645 2.424L497.887 1.45386L497.887 1.45386L497.645 2.424ZM501.117 3.85L502.043 4.22658C502.226 3.7763 502.059 3.25961 501.647 3.002L501.117 3.85ZM499.567 7.663L499.073 8.53289C499.324 8.67483 499.623 8.70205 499.895 8.60759C500.167 8.51314 500.385 8.30616 500.493 8.03958L499.567 7.663ZM490.422 6.64L489.867 5.80795C489.863 5.81059 489.859 5.81326 489.855 5.81596L490.422 6.64ZM490.577 10.112L490.139 11.0112C490.149 11.0159 490.159 11.0204 490.168 11.0248L490.577 10.112ZM494.142 11.166L494.373 10.1931C494.368 10.1918 494.362 10.1907 494.357 10.1895L494.142 11.166ZM498.203 12.344L498.552 11.4069L498.552 11.4069L498.203 12.344ZM500.9 14.204L500.148 14.8639L500.157 14.874L500.9 14.204ZM500.993 21.055L500.166 20.4927L500.163 20.4964L500.993 21.055ZM497.893 23.473L497.495 22.5553L497.495 22.5553L497.893 23.473ZM492.84 23.372C491.214 23.372 489.642 23.1567 488.12 22.7276L487.577 24.6524C489.28 25.1326 491.035 25.372 492.84 25.372V23.372ZM488.135 22.7318C486.621 22.2796 485.46 21.7161 484.613 21.0671L483.397 22.6549C484.492 23.4939 485.894 24.1497 487.563 24.6482L488.135 22.7318ZM484.916 22.272L486.621 18.49L484.798 17.668L483.093 21.45L484.916 22.272ZM485.118 18.8854C486.148 19.6404 487.353 20.2329 488.72 20.6737L489.334 18.7703C488.138 18.3845 487.132 17.8816 486.301 17.2726L485.118 18.8854ZM488.72 20.6737C490.095 21.1174 491.48 21.342 492.871 21.342V19.342C491.699 19.342 490.521 19.1533 489.334 18.7703L488.72 20.6737ZM492.871 21.342C494.355 21.342 495.633 21.1338 496.551 20.5772L495.514 18.8668C495.069 19.1369 494.238 19.342 492.871 19.342V21.342ZM496.57 20.5657C497.489 19.9805 498.056 19.1179 498.056 18.017H496.056C496.056 18.3214 495.94 18.5955 495.496 18.8783L496.57 20.5657ZM498.056 18.017C498.056 17.188 497.704 16.4802 497.06 15.9651L495.811 17.5269C495.994 17.6732 496.056 17.8127 496.056 18.017H498.056ZM497.103 16.0008C496.581 15.5342 495.931 15.1954 495.193 14.9573L494.579 16.8607C495.122 17.0359 495.505 17.2552 495.769 17.4912L497.103 16.0008ZM495.202 14.9603C494.538 14.7392 493.656 14.5036 492.569 14.2526L492.119 16.2014C493.181 16.4464 493.993 16.6655 494.569 16.8577L495.202 14.9603ZM492.575 14.2541C490.944 13.8666 489.633 13.4849 488.632 13.1119L487.934 14.9861C489.04 15.3984 490.437 15.802 492.113 16.1999L492.575 14.2541ZM488.632 13.1119C487.737 12.7785 486.964 12.2449 486.305 11.497L484.804 12.819C485.675 13.8071 486.721 14.5342 487.934 14.9861L488.632 13.1119ZM486.314 11.5072C485.763 10.8645 485.439 9.95912 485.439 8.686H483.439C483.439 10.3062 483.858 11.7155 484.795 12.8088L486.314 11.5072ZM485.439 8.686C485.439 7.61748 485.724 6.67658 486.291 5.8346L484.632 4.7174C483.835 5.90076 483.439 7.23318 483.439 8.686H485.439ZM486.296 5.82684C486.852 4.98424 487.709 4.28034 488.933 3.74252L488.128 1.91148C486.624 2.57232 485.435 3.50109 484.627 4.72516L486.296 5.82684ZM488.928 3.74472C490.154 3.21386 491.695 2.928 493.584 2.928V0.928C491.504 0.928 489.676 1.24147 488.133 1.90928L488.928 3.74472ZM493.584 2.928C494.888 2.928 496.16 3.08361 497.402 3.39414L497.887 1.45386C496.484 1.10305 495.049 0.928 493.584 0.928V2.928ZM497.402 3.39414C498.64 3.70351 499.697 4.14183 500.587 4.698L501.647 3.002C500.553 2.31817 499.295 1.80582 497.887 1.45386L497.402 3.39414ZM500.19 3.47342L498.64 7.28642L500.493 8.03958L502.043 4.22658L500.19 3.47342ZM500.06 6.79311C497.928 5.58408 495.755 4.958 493.553 4.958V6.958C495.36 6.958 497.196 7.46859 499.073 8.53289L500.06 6.79311ZM493.553 4.958C492.075 4.958 490.793 5.19045 489.867 5.80795L490.976 7.47205C491.414 7.18022 492.22 6.958 493.553 6.958V4.958ZM489.855 5.81596C488.948 6.43986 488.43 7.33527 488.43 8.438H490.43C490.43 8.05272 490.573 7.74947 490.988 7.46404L489.855 5.81596ZM488.43 8.438C488.43 8.9907 488.575 9.51773 488.892 9.97973C489.203 10.4341 489.64 10.7686 490.139 11.0112L491.014 9.21276C490.748 9.08341 490.612 8.9529 490.541 8.84927C490.476 8.75327 490.43 8.6293 490.43 8.438H488.43ZM490.168 11.0248C491.048 11.4184 492.316 11.787 493.926 12.1425L494.357 10.1895C492.785 9.8423 491.676 9.50823 490.985 9.19918L490.168 11.0248ZM493.911 12.1389C495.542 12.5264 496.852 12.9081 497.854 13.2811L498.552 11.4069C497.445 10.9946 496.048 10.591 494.373 10.1931L493.911 12.1389ZM497.854 13.2811C498.752 13.6159 499.513 14.1404 500.148 14.8638L501.651 13.5442C500.798 12.5729 499.761 11.8575 498.552 11.4069L497.854 13.2811ZM500.157 14.874C500.715 15.4923 501.047 16.3773 501.047 17.645H503.047C503.047 16.0194 502.613 14.6103 501.642 13.534L500.157 14.874ZM501.047 17.645C501.047 18.6828 500.757 19.6238 500.166 20.4927L501.82 21.6173C502.634 20.4195 503.047 19.0872 503.047 17.645H501.047ZM500.163 20.4964C499.611 21.3168 498.746 22.0139 497.495 22.5553L498.29 24.3907C499.809 23.7334 501.011 22.8185 501.822 21.6136L500.163 20.4964ZM497.495 22.5553C496.269 23.0861 494.728 23.372 492.84 23.372V25.372C494.919 25.372 496.747 25.0585 498.29 24.3907L497.495 22.5553ZM509.671 6.392H510.671C510.671 5.83971 510.223 5.392 509.671 5.392V6.392ZM502.727 6.392H501.727C501.727 6.94428 502.174 7.392 502.727 7.392V6.392ZM502.727 2.3V1.3C502.174 1.3 501.727 1.74771 501.727 2.3H502.727ZM521.637 2.3H522.637C522.637 1.74771 522.189 1.3 521.637 1.3V2.3ZM521.637 6.392V7.392C522.189 7.392 522.637 6.94428 522.637 6.392H521.637ZM514.693 6.392V5.392C514.14 5.392 513.693 5.83971 513.693 6.392H514.693ZM514.693 24V25C515.245 25 515.693 24.5523 515.693 24H514.693ZM509.671 24H508.671C508.671 24.5523 509.118 25 509.671 25V24ZM509.671 5.392H502.727V7.392H509.671V5.392ZM503.727 6.392V2.3H501.727V6.392H503.727ZM502.727 3.3H521.637V1.3H502.727V3.3ZM520.637 2.3V6.392H522.637V2.3H520.637ZM521.637 5.392H514.693V7.392H521.637V5.392ZM513.693 6.392V24H515.693V6.392H513.693ZM514.693 23H509.671V25H514.693V23ZM510.671 24V6.392H508.671V24H510.671ZM541.141 19.97H542.141C542.141 19.4177 541.693 18.97 541.141 18.97V19.97ZM541.141 24V25C541.693 25 542.141 24.5523 542.141 24H541.141ZM524.339 24H523.339C523.339 24.5523 523.786 25 524.339 25V24ZM524.339 2.3V1.3C523.786 1.3 523.339 1.74771 523.339 2.3H524.339ZM540.738 2.3H541.738C541.738 1.74771 541.29 1.3 540.738 1.3V2.3ZM540.738 6.33V7.33C541.29 7.33 541.738 6.88228 541.738 6.33H540.738ZM529.33 6.33V5.33C528.777 5.33 528.33 5.77771 528.33 6.33H529.33ZM529.33 11.042H528.33C528.33 11.5943 528.777 12.042 529.33 12.042V11.042ZM539.405 11.042H540.405C540.405 10.4897 539.957 10.042 539.405 10.042V11.042ZM539.405 14.948V15.948C539.957 15.948 540.405 15.5003 540.405 14.948H539.405ZM529.33 14.948V13.948C528.777 13.948 528.33 14.3957 528.33 14.948H529.33ZM529.33 19.97H528.33C528.33 20.5223 528.777 20.97 529.33 20.97V19.97ZM540.141 19.97V24H542.141V19.97H540.141ZM541.141 23H524.339V25H541.141V23ZM525.339 24V2.3H523.339V24H525.339ZM524.339 3.3H540.738V1.3H524.339V3.3ZM539.738 2.3V6.33H541.738V2.3H539.738ZM540.738 5.33H529.33V7.33H540.738V5.33ZM528.33 6.33V11.042H530.33V6.33H528.33ZM529.33 12.042H539.405V10.042H529.33V12.042ZM538.405 11.042V14.948H540.405V11.042H538.405ZM539.405 13.948H529.33V15.948H539.405V13.948ZM528.33 14.948V19.97H530.33V14.948H528.33ZM529.33 20.97H541.141V18.97H529.33V20.97ZM564.883 24L563.883 24.0024C563.885 24.5537 564.332 25 564.883 25V24ZM564.852 10.98L565.852 10.9776C565.851 10.5279 565.55 10.1343 565.117 10.0155C564.683 9.89674 564.223 10.0821 563.993 10.4684L564.852 10.98ZM558.466 21.706V22.706C558.819 22.706 559.145 22.5204 559.326 22.2176L558.466 21.706ZM556.203 21.706L555.349 22.2257C555.531 22.524 555.854 22.706 556.203 22.706V21.706ZM549.848 11.259L550.703 10.7393C550.47 10.3562 550.01 10.1751 549.579 10.2961C549.147 10.4171 548.848 10.8106 548.848 11.259H549.848ZM549.848 24V25C550.401 25 550.848 24.5523 550.848 24H549.848ZM545.136 24H544.136C544.136 24.5523 544.584 25 545.136 25V24ZM545.136 2.3V1.3C544.584 1.3 544.136 1.74771 544.136 2.3H545.136ZM549.29 2.3L550.147 1.78406C549.966 1.48367 549.641 1.3 549.29 1.3V2.3ZM557.412 15.785L556.556 16.3009C556.737 16.6024 557.064 16.7862 557.416 16.785C557.768 16.7838 558.093 16.5978 558.273 16.2951L557.412 15.785ZM565.41 2.3V1.3C565.057 1.3 564.73 1.48619 564.55 1.78987L565.41 2.3ZM569.533 2.3L570.533 2.29714C570.532 1.74597 570.085 1.3 569.533 1.3V2.3ZM569.595 24V25C569.861 25 570.116 24.8943 570.304 24.7061C570.491 24.5179 570.596 24.2629 570.595 23.9971L569.595 24ZM565.883 23.9976L565.852 10.9776L563.852 10.9824L563.883 24.0024L565.883 23.9976ZM563.993 10.4684L557.607 21.1944L559.326 22.2176L565.712 11.4916L563.993 10.4684ZM558.466 20.706H556.203V22.706H558.466V20.706ZM557.058 21.1863L550.703 10.7393L548.994 11.7787L555.349 22.2257L557.058 21.1863ZM548.848 11.259V24H550.848V11.259H548.848ZM549.848 23H545.136V25H549.848V23ZM546.136 24V2.3H544.136V24H546.136ZM545.136 3.3H549.29V1.3H545.136V3.3ZM548.434 2.81594L556.556 16.3009L558.269 15.2691L550.147 1.78406L548.434 2.81594ZM558.273 16.2951L566.271 2.81013L564.55 1.78987L556.552 15.2749L558.273 16.2951ZM565.41 3.3H569.533V1.3H565.41V3.3ZM568.533 2.30286L568.595 24.0029L570.595 23.9971L570.533 2.29714L568.533 2.30286ZM569.595 23H564.883V25H569.595V23Z" fill="black"/>
</g>
<defs>
<filter id="filter0_d" x="0.572998" y="0.927979" width="574.022" height="32.444" filterUnits="userSpaceOnUse" color-interpolation-filters="sRGB">
<feFlood flood-opacity="0" result="BackgroundImageFix"/>
<feColorMatrix in="SourceAlpha" type="matrix" values="0 0 0 0 0 0 0 0 0 0 0 0 0 0 0 0 0 0 127 0"/>
<feOffset dy="4"/>
<feGaussianBlur stdDeviation="2"/>
<feColorMatrix type="matrix" values="0 0 0 0 0 0 0 0 0 0 0 0 0 0 0 0 0 0 0.25 0"/>
<feBlend mode="normal" in2="BackgroundImageFix" result="effect1_dropShadow"/>
<feBlend mode="normal" in="SourceGraphic" in2="effect1_dropShadow" result="shape"/>
</filter>
</defs>
</svg>
